<?xml version="1.0" encoding="utf-8"?>
<!-- Generator: Adobe Illustrator 27.5.0, SVG Export Plug-In . SVG Version: 6.00 Build 0)  -->
<svg version="1.1" id="Calque_1" xmlns="http://www.w3.org/2000/svg" xmlns:xlink="http://www.w3.org/1999/xlink" x="0px" y="0px"
	 viewBox="0 0 600 225.4" style="enable-background:new 0 0 600 225.4;" xml:space="preserve">
<style type="text/css">
	.st0{fill:#FFFFFF;}
	.st1{fill:#FD8B25;}
	.st2{fill:#003E7A;}
	.st3{fill:url(#SVGID_1_);}
	.st4{fill:url(#SVGID_00000116938410846263359710000010314283976393377722_);}
</style>
<g>
	<rect y="0" class="st0" width="600" height="225.4"/>
	<g>
		<path class="st1" d="M239.8,195.5h-11.9v-20.6h2.7V193h9.2V195.5z M248.5,195.8c-2.5,0-4.4-0.7-5.7-2.1c-1.4-1.4-2-3.4-2-5.9
			c0-2.5,0.7-4.5,2-6c1.3-1.5,3-2.2,5.2-2.2c1,0,1.8,0.1,2.5,0.4c0.7,0.3,1.4,0.7,1.9,1.3c0.6,0.6,1,1.3,1.3,2.2
			c0.3,0.8,0.4,1.9,0.4,3.1v1.4h-10.7c0,1.8,0.5,3.2,1.4,4.1c0.9,0.9,2.2,1.4,3.7,1.4c0.6,0,1.1-0.1,1.7-0.2c0.6-0.1,1-0.3,1.5-0.5
			c0.5-0.2,0.9-0.4,1.2-0.6c0.3-0.2,0.6-0.4,0.8-0.6h0.2v2.8c-0.3,0.1-0.7,0.3-1.1,0.5c-0.5,0.2-0.9,0.3-1.2,0.4
			c-0.5,0.1-1,0.2-1.4,0.3C249.6,195.8,249.1,195.8,248.5,195.8z M251.5,186c0-0.7-0.1-1.3-0.2-1.8c-0.1-0.5-0.4-0.9-0.6-1.3
			c-0.3-0.4-0.7-0.7-1.2-0.9c-0.5-0.2-1.1-0.3-1.8-0.3c-0.7,0-1.3,0.1-1.8,0.3c-0.5,0.2-0.9,0.5-1.3,0.9c-0.4,0.4-0.7,0.9-0.9,1.4
			c-0.2,0.5-0.3,1.1-0.4,1.7H251.5z M260.8,195.8c-1,0-2-0.1-2.9-0.4c-0.9-0.3-1.6-0.6-2.2-0.9v-2.9h0.1c0.2,0.2,0.5,0.4,0.8,0.6
			c0.3,0.2,0.7,0.4,1.2,0.7c0.4,0.2,0.9,0.4,1.5,0.5c0.5,0.2,1.1,0.2,1.7,0.2c0.4,0,0.9,0,1.3-0.1c0.5-0.1,0.8-0.2,1-0.4
			c0.3-0.2,0.6-0.4,0.7-0.7c0.1-0.2,0.2-0.6,0.2-1.1c0-0.6-0.2-1.1-0.5-1.4c-0.3-0.3-0.9-0.6-1.8-0.8c-0.3-0.1-0.8-0.2-1.3-0.3
			c-0.5-0.1-1-0.2-1.5-0.4c-1.2-0.3-2-0.9-2.6-1.6c-0.5-0.7-0.8-1.6-0.8-2.6c0-1.4,0.5-2.5,1.6-3.4c1-0.9,2.4-1.3,4.2-1.3
			c0.9,0,1.7,0.1,2.6,0.3s1.6,0.5,2.2,0.8v2.8h-0.1c-0.7-0.5-1.4-0.9-2.2-1.2c-0.8-0.3-1.6-0.5-2.5-0.5c-0.9,0-1.6,0.2-2.2,0.5
			c-0.6,0.4-0.9,0.9-0.9,1.6c0,0.6,0.2,1.1,0.5,1.5c0.4,0.3,0.9,0.6,1.7,0.8c0.4,0.1,0.8,0.2,1.3,0.3c0.5,0.1,1,0.2,1.5,0.3
			c1.1,0.3,2,0.8,2.6,1.4c0.6,0.7,0.9,1.6,0.9,2.7c0,0.7-0.1,1.3-0.4,1.9c-0.3,0.6-0.6,1.1-1.1,1.5c-0.6,0.5-1.2,0.8-1.9,1
			C262.7,195.7,261.9,195.8,260.8,195.8z M282.8,195.8c-1.4,0-2.5-0.4-3.3-1.2c-0.8-0.8-1.2-2.1-1.2-3.8v-8.5h-1.8V180h1.8v-4.4h2.6
			v4.4h4.8v2.2h-4.8v7.3c0,0.8,0,1.4,0,1.8s0.1,0.8,0.3,1.2c0.2,0.3,0.4,0.6,0.8,0.7c0.4,0.2,0.8,0.2,1.4,0.2c0.4,0,0.8-0.1,1.2-0.2
			c0.4-0.1,0.7-0.2,0.9-0.3h0.2v2.3c-0.5,0.1-1,0.2-1.5,0.3C283.7,195.7,283.2,195.8,282.8,195.8z M294.3,195.8
			c-2.5,0-4.4-0.7-5.7-2.1c-1.4-1.4-2-3.4-2-5.9c0-2.5,0.7-4.5,2-6c1.3-1.5,3-2.2,5.2-2.2c1,0,1.8,0.1,2.5,0.4
			c0.7,0.3,1.4,0.7,1.9,1.3c0.6,0.6,1,1.3,1.3,2.2c0.3,0.8,0.4,1.9,0.4,3.1v1.4h-10.7c0,1.8,0.5,3.2,1.4,4.1
			c0.9,0.9,2.1,1.4,3.7,1.4c0.6,0,1.1-0.1,1.7-0.2c0.6-0.1,1-0.3,1.5-0.5c0.5-0.2,0.9-0.4,1.2-0.6c0.3-0.2,0.6-0.4,0.8-0.6h0.2v2.8
			c-0.3,0.1-0.7,0.3-1.1,0.5c-0.5,0.2-0.9,0.3-1.2,0.4c-0.5,0.1-1,0.2-1.4,0.3C295.4,195.8,294.9,195.8,294.3,195.8z M297.3,186
			c0-0.7-0.1-1.3-0.2-1.8c-0.1-0.5-0.4-0.9-0.6-1.3c-0.3-0.4-0.7-0.7-1.2-0.9c-0.5-0.2-1.1-0.3-1.8-0.3c-0.7,0-1.3,0.1-1.8,0.3
			c-0.5,0.2-0.9,0.5-1.3,0.9c-0.4,0.4-0.7,0.9-0.9,1.4c-0.2,0.5-0.3,1.1-0.4,1.7H297.3z M308.6,195.8c-1.1,0-2-0.2-2.9-0.5
			c-0.9-0.3-1.6-0.8-2.3-1.5c-0.6-0.7-1.1-1.5-1.5-2.5c-0.3-1-0.5-2.2-0.5-3.6c0-1.4,0.2-2.5,0.5-3.5c0.4-1,0.9-1.8,1.5-2.5
			c0.6-0.7,1.4-1.2,2.3-1.5c0.9-0.4,1.9-0.6,2.9-0.6c0.8,0,1.7,0.1,2.4,0.4c0.8,0.2,1.5,0.5,2.1,0.8v2.9H313
			c-0.2-0.2-0.4-0.3-0.7-0.5c-0.3-0.2-0.6-0.4-1-0.6c-0.4-0.2-0.8-0.3-1.3-0.5c-0.5-0.1-1-0.2-1.4-0.2c-1.3,0-2.4,0.5-3.2,1.5
			c-0.8,1-1.2,2.4-1.2,4.3c0,1.8,0.4,3.2,1.2,4.3c0.8,1,1.9,1.5,3.3,1.5c0.8,0,1.7-0.2,2.4-0.5c0.8-0.3,1.4-0.8,2-1.4h0.2v2.9
			c-0.3,0.1-0.6,0.3-1,0.4c-0.4,0.2-0.7,0.3-1,0.4c-0.4,0.1-0.8,0.2-1.2,0.3C309.6,195.8,309.2,195.8,308.6,195.8z M327.7,195.5
			h-2.6v-8.8c0-0.7,0-1.4-0.1-2c-0.1-0.6-0.2-1.1-0.4-1.5c-0.2-0.4-0.5-0.7-0.9-0.9c-0.4-0.2-0.9-0.3-1.5-0.3c-0.6,0-1.3,0.2-2,0.5
			c-0.7,0.3-1.3,0.8-2,1.3v11.5h-2.6V174h2.6v7.8c0.8-0.7,1.5-1.2,2.3-1.6c0.8-0.4,1.6-0.6,2.4-0.6c1.5,0,2.7,0.5,3.6,1.5
			c0.9,1,1.3,2.4,1.3,4.3V195.5z M343.5,195.5h-2.6v-8.8c0-0.7,0-1.4-0.1-2c-0.1-0.6-0.2-1.1-0.4-1.5c-0.2-0.4-0.5-0.7-0.9-0.9
			c-0.4-0.2-0.9-0.3-1.5-0.3c-0.6,0-1.3,0.2-2,0.5c-0.7,0.3-1.3,0.8-2,1.3v11.5h-2.6V180h2.6v1.7c0.8-0.7,1.5-1.2,2.3-1.6
			c0.8-0.4,1.6-0.6,2.4-0.6c1.5,0,2.7,0.5,3.6,1.5c0.9,1,1.3,2.4,1.3,4.3V195.5z M349.7,195.5h-2.6V180h2.6V195.5z M349.9,177.4h-3
			v-2.7h3V177.4z M365.4,201.1h-2.6v-7.4c-0.8,0.7-1.5,1.2-2.2,1.5c-0.7,0.3-1.5,0.5-2.4,0.5c-1.7,0-3.1-0.7-4.2-2.1
			c-1-1.4-1.6-3.4-1.6-5.9c0-1.3,0.2-2.5,0.5-3.5c0.4-1,0.9-1.9,1.5-2.6c0.6-0.7,1.3-1.2,2-1.6c0.8-0.4,1.6-0.6,2.5-0.6
			c0.8,0,1.5,0.1,2.1,0.3c0.6,0.2,1.2,0.5,1.8,0.8l0.2-0.7h2.4V201.1z M362.8,191.6v-8.8c-0.7-0.3-1.2-0.5-1.8-0.7
			c-0.5-0.1-1.1-0.2-1.7-0.2c-1.4,0-2.4,0.5-3.1,1.5c-0.7,1-1.1,2.4-1.1,4.3c0,1.8,0.3,3.2,0.9,4.2c0.6,1,1.5,1.5,2.7,1.5
			c0.7,0,1.4-0.2,2.1-0.5C361.6,192.5,362.3,192.1,362.8,191.6z M381.2,195.5h-2.6v-1.7c-0.8,0.7-1.6,1.2-2.3,1.6
			c-0.7,0.4-1.5,0.5-2.4,0.5c-0.7,0-1.3-0.1-1.9-0.3c-0.6-0.2-1.1-0.6-1.5-1c-0.4-0.5-0.8-1.1-1-1.8c-0.2-0.7-0.4-1.6-0.4-2.7v-10
			h2.6v8.8c0,0.8,0,1.5,0.1,2c0.1,0.5,0.2,1,0.4,1.4c0.2,0.4,0.5,0.7,0.9,0.9c0.4,0.2,0.9,0.3,1.6,0.3c0.6,0,1.3-0.2,2-0.5
			c0.7-0.4,1.4-0.8,2-1.3V180h2.6V195.5z M391.7,195.8c-2.5,0-4.4-0.7-5.7-2.1c-1.4-1.4-2-3.4-2-5.9c0-2.5,0.7-4.5,2-6
			c1.3-1.5,3-2.2,5.2-2.2c1,0,1.8,0.1,2.5,0.4c0.7,0.3,1.4,0.7,1.9,1.3c0.6,0.6,1,1.3,1.3,2.2c0.3,0.8,0.4,1.9,0.4,3.1v1.4h-10.7
			c0,1.8,0.5,3.2,1.4,4.1c0.9,0.9,2.2,1.4,3.7,1.4c0.6,0,1.1-0.1,1.7-0.2c0.6-0.1,1-0.3,1.5-0.5c0.5-0.2,0.9-0.4,1.2-0.6
			c0.3-0.2,0.6-0.4,0.8-0.6h0.2v2.8c-0.3,0.1-0.7,0.3-1.1,0.5c-0.4,0.2-0.9,0.3-1.2,0.4c-0.5,0.1-1,0.2-1.4,0.3
			C392.8,195.8,392.3,195.8,391.7,195.8z M394.7,186c0-0.7-0.1-1.3-0.2-1.8c-0.1-0.5-0.4-0.9-0.6-1.3c-0.3-0.4-0.7-0.7-1.2-0.9
			c-0.5-0.2-1.1-0.3-1.8-0.3c-0.7,0-1.3,0.1-1.8,0.3c-0.5,0.2-0.9,0.5-1.3,0.9c-0.4,0.4-0.7,0.9-0.9,1.4c-0.2,0.5-0.3,1.1-0.4,1.7
			H394.7z M404,195.8c-1,0-2-0.1-2.9-0.4c-0.9-0.3-1.6-0.6-2.2-0.9v-2.9h0.1c0.2,0.2,0.5,0.4,0.8,0.6c0.3,0.2,0.7,0.4,1.2,0.7
			c0.4,0.2,0.9,0.4,1.4,0.5c0.5,0.2,1.1,0.2,1.7,0.2c0.4,0,0.9,0,1.3-0.1c0.5-0.1,0.8-0.2,1-0.4c0.3-0.2,0.6-0.4,0.7-0.7
			c0.1-0.2,0.2-0.6,0.2-1.1c0-0.6-0.2-1.1-0.5-1.4c-0.3-0.3-0.9-0.6-1.8-0.8c-0.3-0.1-0.8-0.2-1.3-0.3c-0.5-0.1-1-0.2-1.5-0.4
			c-1.2-0.3-2-0.9-2.6-1.6c-0.5-0.7-0.8-1.6-0.8-2.6c0-1.4,0.5-2.5,1.6-3.4c1-0.9,2.4-1.3,4.2-1.3c0.9,0,1.7,0.1,2.6,0.3
			c0.9,0.2,1.6,0.5,2.2,0.8v2.8h-0.1c-0.7-0.5-1.4-0.9-2.2-1.2c-0.8-0.3-1.6-0.5-2.5-0.5c-0.9,0-1.6,0.2-2.2,0.5
			c-0.6,0.4-0.9,0.9-0.9,1.6c0,0.6,0.2,1.1,0.5,1.5c0.3,0.3,0.9,0.6,1.7,0.8c0.4,0.1,0.8,0.2,1.3,0.3c0.5,0.1,1,0.2,1.5,0.3
			c1.1,0.3,2,0.8,2.6,1.4c0.6,0.7,0.9,1.6,0.9,2.7c0,0.7-0.1,1.3-0.4,1.9c-0.3,0.6-0.6,1.1-1.1,1.5c-0.6,0.5-1.2,0.8-1.9,1
			C406,195.7,405.1,195.8,404,195.8z M424,195.5h-2.6V180h2.6V195.5z M424.2,177.4h-3v-2.7h3V177.4z M439.9,195.5h-2.6v-8.8
			c0-0.7,0-1.4-0.1-2c-0.1-0.6-0.2-1.1-0.4-1.5c-0.2-0.4-0.5-0.7-0.9-0.9c-0.4-0.2-0.9-0.3-1.5-0.3c-0.6,0-1.3,0.2-2,0.5
			c-0.7,0.3-1.3,0.8-2,1.3v11.5h-2.6V180h2.6v1.7c0.8-0.7,1.5-1.2,2.3-1.6c0.8-0.4,1.6-0.6,2.4-0.6c1.5,0,2.7,0.5,3.6,1.5
			c0.9,1,1.3,2.4,1.3,4.3V195.5z M448.2,195.8c-1.4,0-2.5-0.4-3.3-1.2c-0.8-0.8-1.2-2.1-1.2-3.8v-8.5H442V180h1.8v-4.4h2.6v4.4h4.8
			v2.2h-4.8v7.3c0,0.8,0,1.4,0,1.8c0,0.4,0.1,0.8,0.3,1.2c0.2,0.3,0.4,0.6,0.8,0.7c0.4,0.2,0.8,0.2,1.4,0.2c0.4,0,0.8-0.1,1.2-0.2
			c0.4-0.1,0.7-0.2,0.9-0.3h0.2v2.3c-0.5,0.1-1,0.2-1.5,0.3C449.1,195.7,448.7,195.8,448.2,195.8z M459.7,195.8
			c-2.5,0-4.4-0.7-5.7-2.1c-1.4-1.4-2-3.4-2-5.9c0-2.5,0.7-4.5,2-6c1.3-1.5,3-2.2,5.2-2.2c1,0,1.8,0.1,2.5,0.4s1.4,0.7,1.9,1.3
			c0.6,0.6,1,1.3,1.3,2.2c0.3,0.8,0.4,1.9,0.4,3.1v1.4h-10.7c0,1.8,0.4,3.2,1.4,4.1c0.9,0.9,2.2,1.4,3.7,1.4c0.6,0,1.1-0.1,1.7-0.2
			c0.6-0.1,1.1-0.3,1.5-0.5c0.5-0.2,0.9-0.4,1.2-0.6c0.3-0.2,0.6-0.4,0.8-0.6h0.1v2.8c-0.3,0.1-0.7,0.3-1.1,0.5
			c-0.5,0.2-0.9,0.3-1.2,0.4c-0.5,0.1-1,0.2-1.4,0.3C460.9,195.8,460.4,195.8,459.7,195.8z M462.8,186c0-0.7-0.1-1.3-0.2-1.8
			c-0.1-0.5-0.4-0.9-0.6-1.3c-0.3-0.4-0.7-0.7-1.2-0.9c-0.5-0.2-1.1-0.3-1.8-0.3c-0.7,0-1.3,0.1-1.8,0.3c-0.5,0.2-0.9,0.5-1.3,0.9
			c-0.4,0.4-0.7,0.9-0.9,1.4c-0.2,0.5-0.3,1.1-0.4,1.7H462.8z M463.4,172.3l-3.8,5.2h-2.1l2.5-5.2H463.4z M477.2,191.3v-8.5
			c-0.6-0.3-1.2-0.5-1.8-0.7c-0.5-0.1-1.1-0.2-1.6-0.2c-1.3,0-2.4,0.5-3.1,1.5c-0.8,1-1.1,2.4-1.1,4.2c0,1.7,0.3,3,0.9,3.9
			c0.6,0.9,1.5,1.3,2.8,1.3c0.7,0,1.4-0.1,2.1-0.4C476,192.1,476.6,191.8,477.2,191.3z M468.5,197.9c0.2,0.1,0.4,0.2,0.8,0.3
			c0.3,0.1,0.7,0.2,1.2,0.4c0.5,0.1,0.9,0.2,1.3,0.3c0.4,0.1,0.8,0.1,1.3,0.1c0.8,0,1.5-0.1,2-0.3c0.6-0.2,1-0.5,1.3-0.9
			c0.3-0.4,0.5-0.8,0.6-1.3c0.1-0.5,0.2-1.1,0.2-1.7v-1.4c-0.7,0.6-1.4,1.1-2.1,1.4c-0.7,0.3-1.5,0.4-2.5,0.4c-1.8,0-3.2-0.7-4.2-2
			c-1-1.3-1.6-3.2-1.6-5.6c0-1.3,0.2-2.4,0.5-3.4c0.4-1,0.8-1.8,1.4-2.5c0.6-0.7,1.3-1.2,2.1-1.5c0.8-0.4,1.6-0.5,2.5-0.5
			c0.8,0,1.5,0.1,2.1,0.3c0.6,0.2,1.2,0.5,1.8,0.8l0.2-0.7h2.4v13.7c0,2.6-0.6,4.5-1.7,5.8c-1.1,1.2-2.9,1.8-5.2,1.8
			c-0.8,0-1.5-0.1-2.3-0.2c-0.8-0.1-1.5-0.3-2.2-0.5v-2.7H468.5z M491.7,182.8h-0.1c-0.2-0.1-0.4-0.1-0.6-0.1c-0.2,0-0.5,0-0.8,0
			c-0.7,0-1.4,0.2-2.1,0.5c-0.7,0.3-1.3,0.8-2,1.4v11h-2.6V180h2.6v2.3c0.9-0.8,1.8-1.4,2.5-1.8c0.7-0.4,1.4-0.5,2.1-0.5
			c0.3,0,0.5,0,0.6,0c0.1,0,0.3,0,0.5,0.1V182.8z M500.3,195.8c-2.5,0-4.4-0.7-5.7-2.1c-1.4-1.4-2-3.4-2-5.9c0-2.5,0.7-4.5,2-6
			c1.3-1.5,3-2.2,5.2-2.2c1,0,1.8,0.1,2.5,0.4c0.7,0.3,1.4,0.7,1.9,1.3c0.6,0.6,1,1.3,1.3,2.2c0.3,0.8,0.4,1.9,0.4,3.1v1.4h-10.7
			c0,1.8,0.4,3.2,1.4,4.1c0.9,0.9,2.2,1.4,3.7,1.4c0.6,0,1.1-0.1,1.7-0.2c0.6-0.1,1.1-0.3,1.5-0.5c0.5-0.2,0.9-0.4,1.2-0.6
			c0.3-0.2,0.6-0.4,0.8-0.6h0.1v2.8c-0.3,0.1-0.7,0.3-1.1,0.5c-0.5,0.2-0.9,0.3-1.2,0.4c-0.5,0.1-1,0.2-1.4,0.3
			C501.5,195.8,500.9,195.8,500.3,195.8z M503.4,186c0-0.7-0.1-1.3-0.2-1.8c-0.1-0.5-0.4-0.9-0.6-1.3c-0.3-0.4-0.7-0.7-1.2-0.9
			c-0.5-0.2-1.1-0.3-1.8-0.3c-0.7,0-1.3,0.1-1.8,0.3c-0.5,0.2-0.9,0.5-1.3,0.9c-0.4,0.4-0.7,0.9-0.9,1.4c-0.2,0.5-0.3,1.1-0.4,1.7
			H503.4z M504,172.3l-3.8,5.2h-2.1l2.5-5.2H504z M515.2,195.8c-2.5,0-4.4-0.7-5.7-2.1c-1.4-1.4-2-3.4-2-5.9c0-2.5,0.7-4.5,2-6
			c1.3-1.5,3-2.2,5.2-2.2c1,0,1.8,0.1,2.5,0.4s1.4,0.7,1.9,1.3c0.6,0.6,1,1.3,1.3,2.2c0.3,0.8,0.4,1.9,0.4,3.1v1.4h-10.7
			c0,1.8,0.4,3.2,1.4,4.1c0.9,0.9,2.2,1.4,3.7,1.4c0.6,0,1.1-0.1,1.7-0.2c0.6-0.1,1.1-0.3,1.5-0.5c0.5-0.2,0.9-0.4,1.2-0.6
			c0.3-0.2,0.6-0.4,0.8-0.6h0.2v2.8c-0.3,0.1-0.7,0.3-1.1,0.5c-0.5,0.2-0.9,0.3-1.2,0.4c-0.5,0.1-1,0.2-1.4,0.3
			C516.3,195.8,515.8,195.8,515.2,195.8z M518.2,186c0-0.7-0.1-1.3-0.2-1.8c-0.1-0.5-0.4-0.9-0.6-1.3c-0.3-0.4-0.7-0.7-1.2-0.9
			c-0.5-0.2-1.1-0.3-1.8-0.3c-0.7,0-1.3,0.1-1.8,0.3c-0.5,0.2-0.9,0.5-1.3,0.9c-0.4,0.4-0.7,0.9-0.9,1.4c-0.2,0.5-0.3,1.1-0.4,1.7
			H518.2z M527.6,195.8c-1,0-2-0.1-2.9-0.4c-0.9-0.3-1.6-0.6-2.2-0.9v-2.9h0.1c0.2,0.2,0.5,0.4,0.8,0.6c0.3,0.2,0.7,0.4,1.2,0.7
			c0.4,0.2,0.9,0.4,1.4,0.5c0.5,0.2,1.1,0.2,1.7,0.2c0.4,0,0.9,0,1.3-0.1c0.5-0.1,0.8-0.2,1-0.4c0.3-0.2,0.6-0.4,0.7-0.7
			c0.1-0.2,0.2-0.6,0.2-1.1c0-0.6-0.2-1.1-0.5-1.4c-0.3-0.3-0.9-0.6-1.8-0.8c-0.3-0.1-0.8-0.2-1.3-0.3c-0.5-0.1-1-0.2-1.5-0.4
			c-1.2-0.3-2-0.9-2.6-1.6c-0.5-0.7-0.8-1.6-0.8-2.6c0-1.4,0.5-2.5,1.6-3.4c1.1-0.9,2.4-1.3,4.2-1.3c0.9,0,1.7,0.1,2.6,0.3
			c0.9,0.2,1.6,0.5,2.2,0.8v2.8h-0.1c-0.7-0.5-1.4-0.9-2.2-1.2c-0.8-0.3-1.6-0.5-2.5-0.5c-0.9,0-1.6,0.2-2.2,0.5
			c-0.6,0.4-0.9,0.9-0.9,1.6c0,0.6,0.2,1.1,0.5,1.5c0.4,0.3,0.9,0.6,1.7,0.8c0.4,0.1,0.8,0.2,1.3,0.3c0.5,0.1,1,0.2,1.5,0.3
			c1.1,0.3,2,0.8,2.6,1.4c0.6,0.7,0.9,1.6,0.9,2.7c0,0.7-0.1,1.3-0.4,1.9c-0.3,0.6-0.6,1.1-1.1,1.5c-0.6,0.5-1.2,0.8-1.9,1
			C529.5,195.7,528.6,195.8,527.6,195.8z"/>
		<path class="st2" d="M149,103.2c11.7,4.2,24.1,6.5,36.5,7.8c6,0.5,12,1,18.1,1.1c1.4-5.4,2-11.2,2-17.2
			c0-39.1-31.8-70.8-70.9-70.8c-39.1,0-70.9,31.7-70.9,70.8c0,39.1,31.8,70.8,70.9,70.8c32.2,0,59.4-21.5,68-50.8
			c-1.2,0-2.5,0-3.7,0c-5.2-0.3-10.4-0.5-15.5-1.1c-12.1-1.2-24.3-3.7-35.6-8.3c-7.4-3-14.3-7.1-21-11.4c0-0.3,0-0.7,0-1
			C134.3,96.8,141.4,100.7,149,103.2z"/>
		
			<radialGradient id="SVGID_1_" cx="0.5762" cy="532.0589" r="0.3187" gradientTransform="matrix(98.5347 0 0 -98.4519 101.6386 52477.2812)" gradientUnits="userSpaceOnUse">
			<stop  offset="0" style="stop-color:#FFFFFF;stop-opacity:0.7"/>
			<stop  offset="0.3779" style="stop-color:#A1B8CE;stop-opacity:0.5866"/>
			<stop  offset="1" style="stop-color:#003E7A;stop-opacity:0.4"/>
		</radialGradient>
		<path class="st3" d="M148.1,105.4c-7.4-3-14.3-7.1-21-11.4c0,0.4,0,0.7,0,1.1c0,17.3,14,31.3,31.4,31.3c10.4,0,19.5-5,25.2-12.7
			C171.5,112.5,159.5,110.1,148.1,105.4z M158.4,63.7c-16.6,0-30.3,12.9-31.4,29.3c7.1,3.8,14.3,7.5,21.8,10.2
			c11.7,4.2,24.1,6.5,36.5,7.8c2.7-4.6,4.4-10.1,4.4-15.9C189.8,77.8,175.7,63.7,158.4,63.7z"/>
		<path class="st1" d="M530.1,108.3c-99.9,0.4-219.2,0.4-319.2-0.4c-21.1-0.7-43.4-1.8-63.1-9.9c-7.9-3.3-15.3-7.6-22.4-12.5
			l0.3-0.5c7.5,4,15,8,22.9,10.8c16,5.7,32.7,8,49.6,8.7c4.5,0.1,14.7,0.7,19.1,0.7c69.1,0,241.6,0.3,312.6,0.4
			C530.1,105.3,530.1,108.3,530.1,108.3z"/>
		<path class="st1" d="M530.1,123.3c-99.9,0.4-219.2,0.4-319.2-0.4c-21.1-0.7-43.4-1.8-63.1-9.9c-7.9-3.3-15.3-7.6-22.4-12.5
			l0.3-0.5c7.5,4,15,8,22.9,10.8c16,5.7,32.7,8,49.6,8.7c4.5,0.1,14.7,0.7,19.1,0.7c69.1,0,241.6,0.3,312.6,0.4
			C530.1,120.3,530.1,123.3,530.1,123.3z"/>
		<path class="st2" d="M514.3,85.9h-50.4c-8,0-15.1,4.5-18.8,11c-4.1-6.5-11.3-11-19.6-11h-72.3c-1.5,0-2.7,1.2-2.7,2.7v24.2
			c4.5,0,9.1,0,13.6,0V99.6h61.4c5.2,0,9.4,4.2,9.4,9.4v4c2.5,0,4.9,0,7.4,0c1.4,0,2.7,0,4.2,0c0.7,0,1.4,0,2.2,0c2.5,0,4.9,0,7.4,0
			v-5.3c0-4.5,3.7-8,8-8h50.4c4.5,0,8,3.7,8,8v5.3c7.2,0,12.5,0,13.6,0v-5.2C535.9,95.6,526.2,85.9,514.3,85.9z"/>
		<path class="st2" d="M522.3,145.3c0,4.5-3.7,8-8,8h-50.4c-4.5,0-8-3.7-8-8v-29.6c-3.3,0-6.7,0-10,0c-3.7,0-7.4,0-11,0v0.5
			c0,5.2-4.2,9.4-9.4,9.4H364v-9.9c-4.5,0-9.1,0-13.6,0v13.8c-3.7-2.9-8.3-4.6-13.2-4.6c-13.8,0-37.8,0-48.9,0c-3.3,0-6-2.7-6-6
			v-3.3c-4.5,0-9.1,0-13.6,0v3.3c0,10.9,8.9,19.6,19.6,19.6c17,0,40.4,0,49.2,0c4.1,0,7.6,3.1,7.8,7.2c0,2.3-0.8,4.4-2.6,5.9
			c-1.4,1.2-3.3,1.8-5,1.8h-18.8h-47.4c-1.5,0-2.7,1.2-2.7,2.7v8.2c0,1.5,1.2,2.7,2.7,2.7h66h13.2h10.8h0.1c1.5,0,2.7-1.2,2.7-2.7
			v-24.9h61.4c6.7,0,12.5-2.9,16.8-7.2v13.2c0,12,9.7,21.7,21.7,21.7h50.4c12,0,21.7-9.7,21.7-21.7v-29.6c-4.5,0-9,0-13.6,0v29.6
			H522.3z"/>
		<path class="st2" d="M239.3,164.3c0,1.5,1.2,2.7,2.7,2.7h8.2c1.5,0,2.7-1.2,2.7-2.7v-48.8c-4.6,0-9.1,0-13.6,0V164.3z"/>
		<path class="st2" d="M268.4,105.6v7.1c4.5,0,9,0,13.6,0v-7.1c0-3.3,2.7-6,6-6h24.3c1.5,0,2.7-1.2,2.7-2.7v-8.2
			c0-1.5-1.2-2.7-2.7-2.7h-24.3h-78v13.6h29v13.1c4.5,0,9,0,13.6,0V99.6h16.5C268.8,101.5,268.4,103.5,268.4,105.6z"/>
		
			<radialGradient id="SVGID_00000183250050631787433300000018320530522599153050_" cx="-8.3229" cy="532.0199" r="0.3185" gradientTransform="matrix(91.3825 0 0 -91.3057 1294.415 48675.9727)" gradientUnits="userSpaceOnUse">
			<stop  offset="0" style="stop-color:#FFFFFF;stop-opacity:0.5"/>
			<stop  offset="0.3779" style="stop-color:#A1B8CE;stop-opacity:0.4622"/>
			<stop  offset="1" style="stop-color:#003E7A;stop-opacity:0.4"/>
		</radialGradient>
		<path style="fill:url(#SVGID_00000183250050631787433300000018320530522599153050_);" d="M522.3,115.8v10.5
			c3.5,1.5,7.4,2.3,11.5,2.3c0.7,0,1.4,0,2.2-0.1v-12.8L522.3,115.8z M514.3,85.9h-6.1c-2.2,4.1-3.4,8.7-3.4,13.6h9.5
			c4.5,0,8,3.7,8,8v5.3h13.6v-5.2C535.9,95.6,526.2,85.9,514.3,85.9z"/>
	</g>
</g>
</svg>
