<?xml version="1.0" encoding="utf-8"?>
<!-- Generator: Adobe Illustrator 27.5.0, SVG Export Plug-In . SVG Version: 6.00 Build 0)  -->
<svg version="1.1" id="Calque_1" xmlns="http://www.w3.org/2000/svg" xmlns:xlink="http://www.w3.org/1999/xlink" x="0px" y="0px"
	 viewBox="0 0 600 225.4" style="enable-background:new 0 0 600 225.4;" xml:space="preserve">
<style type="text/css">
	.st0{fill:#FFFFFF;}
	.st1{fill:#203483;}
	.st2{fill:#F18515;}
	.st3{fill:#EDEDED;}
	.st4{opacity:0.4;}
	.st5{opacity:0.6;}
	.st6{fill:none;stroke:#203483;stroke-width:0.3429;stroke-linecap:round;stroke-linejoin:round;stroke-miterlimit:10;}
	.st7{fill:none;stroke:#203483;stroke-width:0.5015;stroke-linecap:round;stroke-linejoin:round;stroke-miterlimit:10;}
	.st8{fill:none;stroke:#203483;stroke-width:0.3009;stroke-linecap:round;stroke-linejoin:round;stroke-miterlimit:10;}
	.st9{fill:none;stroke:#203483;stroke-width:0.1881;stroke-linecap:round;stroke-linejoin:round;stroke-miterlimit:10;}
	.st10{fill:url(#SVGID_1_);}
	.st11{fill:url(#SVGID_00000031912379944933281760000013299569234918075301_);}
	.st12{opacity:0.3;}
	.st13{opacity:0.5;fill:url(#SVGID_00000113342795469106263420000012622888959401784993_);enable-background:new    ;}
	.st14{fill:#F39200;}
</style>
<g>
	<rect class="st0" width="600" height="225.4"/>
	<g>
		<g>
			<path class="st1" d="M291.9,199.4c0,0.7-0.2,1-0.7,1H284c-1.2,0-2.2-0.2-2.9-0.5c-1-0.5-1.7-1.2-1.7-2.2v-5.5
				c0-0.5,0.2-1,0.5-1.4c0.7-1,2.2-1.4,4.1-1.4h1.9c0.5,0,0.7,0.2,0.7,0.7v0.2c0,0.5-0.2,0.7-0.7,0.7c0,0-0.2,0-0.5,0s-0.5,0-0.7,0
				c-2.2,0-3.4,0.5-3.4,1.2v1.9h9.9c0.5,0,0.7,0.2,0.7,0.7c0,0.2,0,0.5-0.2,0.7c-0.2,0.2-0.2,0.2-0.5,0.2h-9.9v1.9
				c0,0.7,1,1.2,2.7,1.2h7.2C291.7,198.6,291.9,198.9,291.9,199.4z"/>
			<path class="st1" d="M295.1,199.6c0,0.5-0.2,0.7-0.7,0.7s-0.7,0-0.7,0c-0.2,0-0.5-0.2-0.5-0.7V190c0-0.5,0.2-0.7,0.7-0.7
				c0.5,0,0.7,0,0.7,0c0.2,0,0.5,0.2,0.5,0.7V199.6z"/>
			<path class="st1" d="M308.6,196.2c0,0.5-0.2,0.7-0.5,0.7h-9.6c0,1.2,1,1.9,2.9,1.9c0.2,0,0.2,0,0.5,0s0.5,0,0.5,0
				c0.5,0,0.7,0.2,0.7,1c0,0.5-0.2,0.7-0.7,0.7c-1.2,0-2.2,0-2.4,0c-1,0-1.9-0.2-2.4-0.7c-0.7-0.5-1-1.2-1-1.9v-3.1
				c0-1,0.5-1.7,1.7-2.2c0.7-0.2,1.7-0.5,2.9-0.5h3.6c1,0,1.7,0.2,2.4,0.5c1,0.5,1.4,1,1.4,1.9L308.6,196.2L308.6,196.2z
				 M306.6,195.3v-1c0-0.7-1.2-1-3.9-1c-0.2,0-0.7,0-1,0s-0.5,0-0.5,0c-1.9,0-2.9,0.2-2.9,1v1H306.6z"/>
			<path class="st1" d="M322.3,199.6c0,0.5-0.2,0.7-1,0.7h-7.2c-1.2,0-2.4-0.2-2.9-0.5c-1-0.5-1.4-1.2-1.4-2.2v-3.4
				c0-1.7,1.4-2.7,4.1-2.7h7.7c0.5,0,0.7,0.2,0.7,0.7c0,0.5-0.2,0.7-0.7,0.7h-7.5c-1.4,0-2.4,0.2-2.4,1v3.6c0,0.7,1,1.2,2.7,1.2h7.2
				C322.1,198.9,322.3,199.1,322.3,199.6z"/>
			<path class="st1" d="M330,192.6c0,0.5-0.2,0.7-0.7,0.7h-3.1v6.3c0,0.5-0.2,0.7-0.7,0.7s-0.7,0-0.7,0c-0.2,0-0.5-0.2-0.5-0.7v-6.3
				h-0.7c-0.5,0-0.7-0.2-0.7-0.7c0-0.5,0.2-0.7,0.7-0.7h0.7v-1.7c0-0.5,0.2-0.7,0.7-0.7c0.5,0,0.7,0,0.7,0c0.2,0,0.5,0.2,0.5,0.7
				v1.7h3.1C329.8,191.6,330,192.1,330,192.6z"/>
			<path class="st1" d="M337,192.6c0,0.5-0.2,0.7-0.7,0.7H336c-0.2,0-0.2,0-0.5,0c-1.4,0-2.2,0.5-2.2,1.2v5.3c0,0.2-0.2,0.5-0.5,0.7
				c0,0-0.5,0-1,0s-0.7-0.2-0.7-0.7v-5.3c0-1.9,1.7-2.7,5.1-2.7C336.8,191.6,337,191.9,337,192.6z"/>
			<path class="st1" d="M340.6,191.2c0,0.2-0.2,0.5-0.5,0.7c-0.2,0.2-0.5,0.2-1,0.2c-0.2,0-0.7,0-1-0.2c-0.2-0.2-0.5-0.5-0.5-0.7
				c0-0.2,0.2-0.5,0.5-0.7c0.2-0.2,0.5-0.2,1-0.2c0.2,0,0.7,0,1,0.2C340.4,190.7,340.6,190.9,340.6,191.2z M340.4,199.6
				c0,0.5-0.2,0.7-0.7,0.7c-0.5,0-0.7,0-0.7,0c-0.2,0-0.5-0.2-0.5-0.7v-6.5c0-0.5,0.2-0.7,0.7-0.7s0.7,0,0.7,0
				c0.2,0,0.5,0.2,0.5,0.7V199.6z"/>
			<path class="st1" d="M354.4,199.6c0,0.5-0.2,0.7-1,0.7h-7.2c-1.2,0-2.4-0.2-2.9-0.5c-1-0.5-1.4-1.2-1.4-2.2v-3.4
				c0-1.7,1.4-2.7,4.1-2.7h7.7c0.5,0,0.7,0.2,0.7,0.7c0,0.5-0.2,0.7-0.7,0.7h-7.5c-1.4,0-2.4,0.2-2.4,1v3.6c0,0.7,1,1.2,2.7,1.2h7.2
				C354.1,198.9,354.4,199.1,354.4,199.6z"/>
			<path class="st1" d="M358,191.2c0,0.2-0.2,0.5-0.5,0.7c-0.2,0.2-0.5,0.2-1,0.2c-0.2,0-0.7,0-1-0.2s-0.5-0.5-0.5-0.7
				c0-0.2,0.2-0.5,0.5-0.7c0.2-0.2,0.5-0.2,1-0.2c0.2,0,0.7,0,1,0.2C357.7,190.7,358,190.9,358,191.2z M357.7,199.6
				c0,0.5-0.2,0.7-0.7,0.7s-0.7,0-0.7,0c-0.2,0-0.5-0.2-0.5-0.7v-6.5c0-0.5,0.2-0.7,0.7-0.7s0.7,0,0.7,0c0.2,0,0.5,0.2,0.5,0.7
				V199.6z"/>
			<path class="st1" d="M365.7,192.6c0,0.5-0.2,0.7-0.7,0.7h-3.1v6.3c0,0.5-0.2,0.7-0.7,0.7s-0.7,0-0.7,0c-0.2,0-0.5-0.2-0.5-0.7
				v-6.3h-0.7c-0.5,0-0.7-0.2-0.7-0.7c0-0.5,0.2-0.7,0.7-0.7h0.7v-1.7c0-0.5,0.2-0.7,0.7-0.7s0.7,0,0.7,0c0.2,0,0.5,0.2,0.5,0.7v1.7
				h3.1C365.4,191.6,365.7,192.1,365.7,192.6z"/>
			<path class="st1" d="M378.9,196.2c0,0.5-0.2,0.7-0.5,0.7h-9.6c0,1.2,1,1.9,2.9,1.9c0.2,0,0.2,0,0.5,0s0.5,0,0.5,0
				c0.5,0,0.7,0.2,0.7,1c0,0.5-0.2,0.7-0.7,0.7c-1.2,0-2.2,0-2.4,0c-1,0-1.9-0.2-2.4-0.7c-0.7-0.5-1-1.2-1-1.9v-3.1
				c0-1,0.5-1.7,1.7-2.2c0.7-0.2,1.7-0.5,2.9-0.5h3.6c1,0,1.7,0.2,2.4,0.5c1,0.5,1.4,1,1.4,1.9V196.2z M377,195.3v-1
				c0-0.7-1.2-1-3.9-1c-0.2,0-0.7,0-1,0c-0.2,0-0.5,0-0.5,0c-1.9,0-2.9,0.2-2.9,1v1H377z M374.4,188c0,0-0.5,0.5-1.2,1.2
				c-0.7,0.7-1.2,1.2-1.4,1.2c-0.2,0-0.2,0.2-0.5,0.2c-0.2,0-0.2,0-0.5-0.2c-0.2,0-0.2-0.2-0.2-0.2c0-0.2,0-0.2,0.2-0.2l2.7-2.4h0.2
				C373.9,187.5,373.9,187.5,374.4,188C374.4,187.5,374.6,187.8,374.4,188C374.6,187.8,374.6,188,374.4,188z"/>
			<path class="st1" d="M393.9,196c0,0.5-0.2,0.7-0.7,0.7h-6c-0.2,0-0.5-0.2-0.7-0.5c0,0,0-0.5,0-0.7c0-0.5,0.2-0.7,0.7-0.7h6
				c0.2,0,0.5,0.2,0.7,0.5C393.9,195.3,393.9,195.5,393.9,196z"/>
			<path class="st1" d="M415.8,199.6c0,0.5-0.2,0.7-0.7,0.7c-0.5,0-0.7,0-1,0c-0.2,0-0.5-0.2-0.5-0.7v-3.9h-9.9v3.9
				c0,0.5-0.2,0.7-0.7,0.7s-0.7,0-1,0c-0.2,0-0.5-0.2-0.5-0.7V190c0-0.5,0.2-0.5,0.5-0.7c0,0,0.5,0,1,0s0.7,0.2,0.7,0.7v4.1h9.9V190
				c0-0.5,0.2-0.5,0.5-0.7c0,0,0.5,0,1,0c0.5,0,0.7,0.2,0.7,0.7V199.6z"/>
			<path class="st1" d="M432,190.4l-6.5,9.4c-0.2,0.5-0.7,0.7-1.2,0.7s-1-0.2-1.2-0.7l-6.5-9.4c-0.2-0.2-0.2-0.5-0.2-0.5
				c0-0.5,0.2-0.5,1-0.5c0.5,0,0.7,0,1,0.2l6,8.7l6-8.7c0.2-0.2,0.5-0.2,1-0.2c0.7,0,1,0.2,1,0.5C432.2,190,432,190.2,432,190.4z"/>
			<path class="st1" d="M447.4,199.4L447.4,199.4c0,0.5,0,0.7-0.2,1c-0.2,0.2-0.5,0.2-0.7,0.2c-0.5,0-0.7-0.2-1-0.5l-1.7-2.7h-8.4
				l-1.7,2.7c-0.2,0.2-0.5,0.5-0.7,0.5c-0.2,0-0.2,0-0.5,0c-0.5-0.2-0.5-0.5-0.5-0.7v-0.2l6.5-9.9c0.2-0.5,0.7-0.5,1.2-0.7
				c0.5,0,0.7,0,1,0.5c0,0,0,0,0,0.2L447.4,199.4z M442.3,195.7l-3.1-4.6l-3.1,4.6H442.3z"/>
			<path class="st1" d="M460.7,190.2c0,0.5-0.2,0.7-0.7,0.7h-7.2c-1.7,0-2.7,0.2-2.7,1v5.5c0,0.7,1,1.2,2.9,1.2h7
				c0.5,0,0.7,0.2,0.7,0.7c0,0.5-0.2,0.7-0.7,0.7h-6.7c-1,0-1.7,0-1.9,0c-0.5,0-1-0.2-1.4-0.5c-0.5-0.2-1-0.5-1.2-1
				c-0.2-0.2-0.5-0.7-0.5-1.4v-5.5c0-0.7,0.2-1.2,1-1.7c0.5-0.5,1.2-0.7,1.9-0.7c0.5,0,1,0,1.7,0h7.2c0.2,0,0.5,0,0.5,0.2
				C460.7,189.7,460.7,190,460.7,190.2z"/>
			<path class="st1" d="M475.9,196c0,0.5-0.2,0.7-0.7,0.7h-6c-0.2,0-0.5-0.2-0.7-0.5c0,0,0-0.5,0-0.7c0-0.5,0.2-0.7,0.7-0.7h6
				c0.2,0,0.5,0.2,0.7,0.5C475.9,195.3,475.9,195.5,475.9,196z"/>
			<path class="st1" d="M496.3,197.7c0,0.5,0,1-0.2,1.4c-0.5,1-1.9,1.4-4.6,1.4h-7c-0.5,0-0.7-0.2-0.7-0.7c0-0.2,0-0.5,0-0.7
				c0-0.2,0.2-0.2,0.5-0.2h7c1.9,0,2.9-0.2,2.9-1v-1c0-0.7-1-1-2.7-1.2c-3.1,0-4.8-0.2-5.1-0.2c-1.9-0.2-2.7-1.2-2.7-2.4v-0.7
				c0-1.4,0.7-2.2,2.2-2.7c0.7-0.2,1.9-0.2,3.9-0.2c0.5,0,0.7,0.2,0.7,0.7v0.2c0,0.5-0.2,0.7-0.7,0.7c0,0-0.2,0-0.5,0
				c-0.2,0-0.5,0-0.5,0c-1.9,0-2.9,0.5-2.9,1.2v0.5c0,0.5,0.5,0.7,1.2,1c0.2,0,1,0,1.7,0h2.7c1.2,0,2.2,0.2,3.1,0.5
				c1.2,0.5,1.7,1.2,1.7,2.2L496.3,197.7L496.3,197.7z"/>
			<path class="st1" d="M509.6,196.2c0,0.5-0.2,0.7-0.5,0.7h-9.6c0,1.2,1,1.9,2.9,1.9c0.2,0,0.2,0,0.5,0s0.5,0,0.5,0
				c0.5,0,0.7,0.2,0.7,1c0,0.5-0.2,0.7-0.7,0.7c-1.2,0-2.2,0-2.4,0c-1,0-1.9-0.2-2.4-0.7c-0.7-0.5-1-1.2-1-1.9v-3.1
				c0-1,0.5-1.7,1.7-2.2c0.7-0.2,1.7-0.5,2.9-0.5h3.6c1,0,1.7,0.2,2.4,0.5c1,0.5,1.4,1,1.4,1.9V196.2z M507.9,195.3v-1
				c0-0.7-1.2-1-3.9-1c-0.2,0-0.7,0-1,0s-0.5,0-0.5,0c-1.9,0-2.9,0.2-2.9,1v1H507.9z M505.3,188c0,0-0.5,0.5-1.2,1.2
				c-0.7,0.7-1.2,1.2-1.4,1.2c-0.2,0-0.2,0.2-0.5,0.2s-0.2,0-0.5-0.2c-0.2,0-0.2-0.2-0.2-0.2c0-0.2,0-0.2,0.2-0.2l2.7-2.4h0.2
				C504.8,187.5,504.8,187.5,505.3,188C505.3,187.5,505.3,187.8,505.3,188C505.3,187.8,505.3,188,505.3,188z"/>
			<path class="st1" d="M523.3,199.6c0,0.5-0.2,0.7-1,0.7h-7.2c-1.2,0-2.4-0.2-2.9-0.5c-1-0.5-1.4-1.2-1.4-2.2v-3.4
				c0-1.7,1.4-2.7,4.1-2.7h7.7c0.5,0,0.7,0.2,0.7,0.7c0,0.5-0.2,0.7-0.7,0.7h-7.5c-1.4,0-2.4,0.2-2.4,1v3.6c0,0.7,1,1.2,2.7,1.2h7.2
				C523.1,198.9,523.3,199.1,523.3,199.6z"/>
			<path class="st1" d="M537.1,197.7c0,1.7-1.9,2.7-5.5,2.7c-0.2,0-0.7,0-1.2,0c-0.5,0-0.7,0-0.7,0c-3.1,0-4.6-1-4.6-2.7v-5.5
				c0-0.5,0.2-0.7,0.7-0.7s0.7,0,0.7,0c0.2,0,0.5,0.2,0.5,0.7v5.5c0,0.7,1,1,2.7,1h2.9c1.7,0,2.7-0.2,2.7-1v-5.5
				c0-0.2,0.2-0.5,0.5-0.7c0,0,0.5,0,0.7,0c0.5,0,0.7,0.2,0.7,0.7V197.7L537.1,197.7z"/>
			<path class="st1" d="M544.1,192.6c0,0.5-0.2,0.7-0.7,0.7h-0.2c-0.2,0-0.2,0-0.5,0c-1.4,0-2.2,0.5-2.2,1.2v5.3
				c0,0.2-0.2,0.5-0.5,0.7c0,0-0.5,0-1,0s-0.7-0.2-0.7-0.7v-5.3c0-1.9,1.7-2.7,5.1-2.7C543.8,191.6,544.1,191.9,544.1,192.6z"/>
			<path class="st1" d="M547.7,191.2c0,0.2-0.2,0.5-0.5,0.7c-0.2,0.2-0.5,0.2-1,0.2c-0.2,0-0.7,0-1-0.2c-0.2-0.2-0.5-0.5-0.5-0.7
				c0-0.2,0.2-0.5,0.5-0.7c0.2-0.2,0.5-0.2,1-0.2c0.2,0,0.7,0,1,0.2C547.4,190.7,547.7,190.9,547.7,191.2z M547.4,199.6
				c0,0.5-0.2,0.7-0.7,0.7s-0.7,0-0.7,0c-0.2,0-0.5-0.2-0.5-0.7v-6.5c0-0.5,0.2-0.7,0.7-0.7s0.7,0,0.7,0c0.2,0,0.5,0.2,0.5,0.7
				V199.6z"/>
			<path class="st1" d="M555.4,192.6c0,0.5-0.2,0.7-0.7,0.7h-3.1v6.3c0,0.5-0.2,0.7-0.7,0.7s-0.7,0-0.7,0c-0.2,0-0.5-0.2-0.5-0.7
				v-6.3h-0.7c-0.5,0-0.7-0.2-0.7-0.7c0-0.5,0.2-0.7,0.7-0.7h0.7v-1.7c0-0.5,0.2-0.7,0.7-0.7s0.7,0,0.7,0c0.2,0,0.5,0.2,0.5,0.7v1.7
				h3.1C555.2,191.6,555.4,192.1,555.4,192.6z"/>
			<path class="st1" d="M568.7,196.2c0,0.5-0.2,0.7-0.5,0.7h-9.6c0,1.2,1,1.9,2.9,1.9c0.2,0,0.2,0,0.5,0c0.2,0,0.5,0,0.5,0
				c0.5,0,0.7,0.2,0.7,1c0,0.5-0.2,0.7-0.7,0.7c-1.2,0-2.2,0-2.4,0c-1,0-1.9-0.2-2.4-0.7c-0.7-0.5-1-1.2-1-1.9v-3.1
				c0-1,0.5-1.7,1.7-2.2c0.7-0.2,1.7-0.5,2.9-0.5h3.6c1,0,1.7,0.2,2.4,0.5c1,0.5,1.4,1,1.4,1.9V196.2z M566.7,195.3v-1
				c0-0.7-1.2-1-3.9-1c-0.2,0-0.7,0-1,0c-0.2,0-0.5,0-0.5,0c-1.9,0-2.9,0.2-2.9,1v1H566.7z M564.1,188c0,0-0.5,0.5-1.2,1.2
				s-1.2,1.2-1.4,1.2c-0.2,0-0.2,0.2-0.5,0.2c-0.2,0-0.2,0-0.5-0.2c-0.2,0-0.2-0.2-0.2-0.2c0-0.2,0-0.2,0.2-0.2l2.7-2.4h0.2
				C563.6,187.5,563.6,187.5,564.1,188C564.1,187.5,564.3,187.8,564.1,188C564.3,187.8,564.3,188,564.1,188z"/>
		</g>
		<g>
			<path class="st2" d="M321.3,71.6c0,0.5-0.2,0.7-0.7,0.7h-5.3c-1,0-1.7,0-2.2,0c-1-0.2-1.4-0.5-1.9-0.7c-0.5-0.5-0.7-1-0.7-1.7
				v-6.3c0-0.5,0.2-0.7,0.7-0.7c0.5,0,0.7,0,0.7,0c0.2,0,0.5,0.2,0.5,0.5v6.3c0,0.5,0.5,0.7,1.2,1c0.2,0,1,0,1.7,0h5.5
				c0.2,0,0.5,0,0.5,0.2C321.1,71.1,321.3,71.4,321.3,71.6z"/>
			<path class="st2" d="M332.9,71.4c0,0.5-0.2,0.7-0.7,0.7h-6.3c-1,0-1.7-0.2-2.4-0.5c-1-0.5-1.4-1-1.4-1.9v-4.6
				c0-0.5,0.2-1,0.5-1.2c0.7-0.7,1.9-1.2,3.6-1.2h1.7c0.5,0,0.5,0.2,0.5,0.7v0.2c0,0.5-0.2,0.7-0.5,0.7c0,0-0.2,0-0.5,0
				s-0.5,0-0.7,0c-1.9,0-2.9,0.2-2.9,1V67h8.4c0.5,0,0.7,0.2,0.7,0.7c0,0.2,0,0.5-0.2,0.5c-0.2,0.2-0.2,0.2-0.5,0.2h-8.4v1.4
				c0,0.7,0.7,1,2.2,1h6C332.9,70.6,332.9,70.9,332.9,71.4z"/>
			<path class="st2" d="M344.7,69.7c0,0.5,0,1-0.2,1.2c-0.5,0.7-1.7,1.2-3.9,1.2h-6c-0.5,0-0.5-0.2-0.5-0.7c0-0.2,0-0.5,0-0.5
				c0-0.2,0.2-0.2,0.5-0.2h6c1.7,0,2.4-0.2,2.4-1v-0.7c0-0.5-0.7-1-2.4-1c-2.7,0-4.1-0.2-4.3-0.2c-1.4-0.2-2.4-1-2.4-2.2v-0.5
				c0-1.2,0.7-1.9,1.9-2.2c0.5-0.2,1.7-0.2,3.1-0.2c0.5,0,0.7,0.2,0.7,0.7v0.2c0,0.5-0.2,0.7-0.7,0.7h-0.2c-0.2,0-0.2,0-0.5,0
				c-1.7,0-2.7,0.2-2.7,1v0.7c0,0.5,0.2,0.7,1,0.7c0.2,0,0.7,0,1.4,0h2.4c1,0,1.9,0.2,2.7,0.5c1,0.5,1.4,1,1.4,1.9v0.5
				C344.5,69.7,344.7,69.7,344.7,69.7z"/>
			<path class="st2" d="M360.1,63.4c0,0.5-0.2,0.7-0.7,0.7h-3.9v7.5c0,0.5-0.2,0.7-0.5,0.7c-0.5,0-0.7,0-0.7,0
				c-0.2,0-0.2-0.2-0.2-0.5v-7.5h-3.9c-0.5,0-0.7-0.2-0.7-0.7c0-0.2,0-0.5,0-0.5c0-0.2,0.2-0.2,0.5-0.2h9.4c0.2,0,0.5,0,0.5,0.2
				C360.1,62.9,360.1,63.2,360.1,63.4z"/>
			<path class="st2" d="M372,71.4c0,0.5-0.2,0.7-0.7,0.7H365c-1,0-1.7-0.2-2.4-0.5c-1-0.5-1.4-1-1.4-1.9v-4.6c0-0.5,0.2-1,0.5-1.2
				c0.7-0.7,1.9-1.2,3.6-1.2h1.7c0.5,0,0.5,0.2,0.5,0.7v0.2c0,0.5-0.2,0.7-0.5,0.7c0,0-0.2,0-0.5,0s-0.5,0-0.7,0
				c-1.9,0-2.9,0.2-2.9,1V67h8.4c0.5,0,0.7,0.2,0.7,0.7c0,0.2,0,0.5-0.2,0.5c-0.2,0.2-0.2,0.2-0.5,0.2h-8.4v1.4c0,0.7,0.7,1,2.2,1h6
				C371.7,70.6,372,70.9,372,71.4z"/>
			<path class="st2" d="M384,63.4c0,0.5-0.2,0.7-0.7,0.7h-6c-1.4,0-2.2,0.2-2.2,1v4.6c0,0.7,0.7,1,2.4,1h5.8c0.5,0,0.7,0.2,0.7,0.7
				c0,0.5-0.2,0.7-0.7,0.7h-5.8c-0.7,0-1.4,0-1.7,0c-0.5,0-0.7-0.2-1.2-0.5c-0.5-0.2-0.7-0.5-1-0.7c-0.2-0.2-0.2-0.7-0.2-1.2v-4.8
				c0-0.5,0.2-1.2,0.7-1.4s1-0.5,1.7-0.7c0.2,0,0.7,0,1.4,0h6.3c0.2,0,0.5,0,0.5,0.2C384,62.9,384,63.2,384,63.4z"/>
			<path class="st2" d="M397,71.6c0,0.5-0.2,0.7-0.7,0.7s-0.7,0-0.7,0c-0.2,0-0.2-0.2-0.2-0.5v-3.4h-8.4v3.4c0,0.5-0.2,0.7-0.7,0.7
				s-0.7,0-0.7,0c-0.2,0-0.2-0.2-0.2-0.5v-8.2c0-0.2,0-0.5,0.2-0.5c0,0,0.2,0,0.7,0s0.7,0.2,0.7,0.7v3.4h8.4v-3.4
				c0-0.2,0-0.5,0.2-0.5c0,0,0.2,0,0.7,0s0.7,0.2,0.7,0.7V71.6z"/>
			<path class="st2" d="M409.8,71.1c0,0.7-0.2,1-1,1h-0.2c-0.2,0-0.5-0.2-0.7-0.5l-8-6.7v6.7c0,0.2,0,0.5-0.2,0.5c0,0-0.2,0-0.7,0
				c-0.5,0-0.7-0.2-0.7-0.7v-8c0-0.2,0-0.5,0-0.5c0-0.2,0.2-0.2,0.5-0.5c0.2,0,0.2,0,0.5,0c0.5,0,0.7,0.2,1.2,0.5l8,6.7v-6.5
				c0-0.2,0.2-0.5,0.5-0.5c0,0,0.2,0,0.7,0s0.7,0.2,0.7,0.7v7.7H409.8z"/>
			<path class="st2" d="M412.7,71.6c0,0.5-0.2,0.7-0.7,0.7s-0.7,0-0.7,0c-0.2,0-0.2-0.2-0.2-0.5v-8.2c0-0.2,0-0.5,0.2-0.5
				c0,0,0.2,0,0.7,0s0.7,0.2,0.7,0.7V71.6z"/>
			<path class="st2" d="M425.5,69.7c0,1-0.5,1.7-1.4,2.2c0.2,0,0.5,0.2,0.7,0.5c0.2,0,0.2,0.2,0.2,0.5s-0.2,0.5-0.5,0.7
				c-0.2,0-0.5,0-0.7,0l-1.9-1h-3.4c-2.9,0-4.6-0.7-4.6-2.4v-5.1c0-1,0.5-1.7,1.4-2.2c0.5-0.2,1.7-0.2,2.9-0.2h2.7
				c1.4,0,2.4,0,2.9,0.2c1,0.2,1.4,1,1.4,2.2L425.5,69.7L425.5,69.7z M423.8,69.7v-4.6c0-0.5-0.5-0.7-1.2-1c-0.2,0-1,0-1.7,0h-2.7
				c-0.7,0-1.4,0-1.7,0c-0.7,0.2-1.2,0.5-1.2,1v4.6c0,0.5,0.5,0.7,1.2,1c0.2,0,1,0,1.7,0h2.7c0.7,0,1.2,0,1.7,0
				C423.5,70.4,423.8,70.1,423.8,69.7z"/>
			<path class="st2" d="M438.5,69.4c0,1.7-1.7,2.7-5.1,2.7c-0.2,0-0.7,0-1,0c-0.5,0-0.7,0-0.7,0c-2.4,0-3.9-0.5-4.3-1.4
				c-0.2-0.2-0.2-0.7-0.2-1.2v-6.3c0-0.5,0.2-0.7,0.7-0.7c0.5,0,0.7,0,0.7,0c0.2,0,0.5,0.2,0.5,0.5v6c0,0.5,0.5,1,1.2,1.2
				c0.5,0,1,0.2,1.9,0.2h2.4c0.7,0,1.4,0,1.9-0.2c0.7-0.2,1.2-0.5,1.2-1.2v-6c0-0.2,0.2-0.5,0.5-0.5c0,0,0.2,0,0.7,0
				c0.5,0,0.7,0.2,0.7,0.7v6.3H438.5z"/>
			<path class="st2" d="M450.3,71.4c0,0.5-0.2,0.7-0.7,0.7h-6c-1,0-1.7-0.2-2.4-0.5c-1-0.5-1.4-1-1.4-1.9v-4.6c0-0.5,0.2-1,0.5-1.2
				c0.7-0.7,1.9-1.2,3.6-1.2h1.7c0.5,0,0.5,0.2,0.5,0.7v0.2c0,0.5-0.2,0.7-0.5,0.7c0,0-0.2,0-0.5,0s-0.5,0-0.7,0
				c-1.9,0-2.9,0.2-2.9,1V67h8.4c0.5,0,0.7,0.2,0.7,0.7c0,0.2,0,0.5-0.2,0.5c-0.2,0.2-0.2,0.2-0.5,0.2h-8.4v1.4c0,0.7,0.7,1,2.2,1h6
				C450.1,70.6,450.3,70.9,450.3,71.4z"/>
			<path class="st2" d="M462.1,69.7c0,0.5,0,1-0.2,1.2c-0.5,0.7-1.7,1.2-3.9,1.2h-6c-0.5,0-0.5-0.2-0.5-0.7c0-0.2,0-0.5,0-0.5
				c0-0.2,0.2-0.2,0.5-0.2h6c1.7,0,2.4-0.2,2.4-1v-0.7c0-0.5-0.7-1-2.4-1c-2.7,0-4.1-0.2-4.3-0.2c-1.4-0.2-2.4-1-2.4-2.2v-0.5
				c0-1.2,0.7-1.9,1.9-2.2c0.5-0.2,1.7-0.2,3.1-0.2c0.5,0,0.7,0.2,0.7,0.7v0.2c0,0.5-0.2,0.7-0.7,0.7h-0.2c-0.2,0-0.2,0-0.5,0
				c-1.7,0-2.7,0.2-2.7,1v0.7c0,0.5,0.2,0.7,1,0.7c0.2,0,0.7,0,1.4,0h2.4c1,0,1.9,0.2,2.7,0.5c1,0.5,1.4,1,1.4,1.9v0.5
				C461.9,69.7,462.1,69.7,462.1,69.7z"/>
			<path class="st2" d="M479.7,69.7c0,0.5,0,1-0.2,1.2c-0.5,0.7-1.7,1.2-3.9,1.2h-6c-0.5,0-0.5-0.2-0.5-0.7c0-0.2,0-0.5,0-0.5
				c0-0.2,0.2-0.2,0.5-0.2h6c1.7,0,2.4-0.2,2.4-1v-0.7c0-0.5-0.7-1-2.4-1c-2.7,0-4.1-0.2-4.3-0.2c-1.4-0.2-2.4-1-2.4-2.2v-0.5
				c0-1.2,0.7-1.9,1.9-2.2c0.5-0.2,1.7-0.2,3.1-0.2c0.5,0,0.7,0.2,0.7,0.7v0.2c0,0.5-0.2,0.7-0.7,0.7h-0.2c-0.2,0-0.2,0-0.5,0
				c-1.7,0-2.7,0.2-2.7,1v0.7c0,0.5,0.2,0.7,1,0.7c0.2,0,0.7,0,1.4,0h2.4c1,0,1.9,0.2,2.7,0.5c1,0.5,1.4,1,1.4,1.9v0.5
				C479.5,69.7,479.7,69.7,479.7,69.7z"/>
			<path class="st2" d="M492.5,66.3c0,1-0.5,1.7-1.4,2.2c-0.7,0.2-1.7,0.5-2.7,0.5h-6v2.9c0,0.2-0.2,0.5-0.5,0.5c0,0-0.2,0-0.7,0
				s-0.7-0.2-0.7-0.7v-8.2c0-0.5,0.2-0.7,0.7-0.7h7.2c1,0,1.7,0.2,2.4,0.5c1,0.5,1.4,1,1.4,1.7v1.4
				C492.2,66.3,492.5,66.3,492.5,66.3z M490.8,66.3v-1.2c0-0.5-0.7-0.7-2.2-0.7h-6v3.4h6C490.1,67.3,490.8,67,490.8,66.3z"/>
			<path class="st2" d="M504.3,71.4c0,0.5-0.2,0.7-0.7,0.7h-6.3c-1,0-1.7-0.2-2.4-0.5c-1-0.5-1.4-1-1.4-1.9v-4.6
				c0-0.5,0.2-1,0.5-1.2c0.7-0.7,1.9-1.2,3.6-1.2h1.7c0.5,0,0.7,0.2,0.7,0.7v0.2c0,0.5-0.2,0.7-0.7,0.7c0,0-0.2,0-0.5,0
				s-0.5,0-0.7,0c-1.9,0-2.9,0.2-2.9,1V67h8.4c0.5,0,0.7,0.2,0.7,0.7c0,0.2,0,0.5-0.2,0.5c-0.2,0.2-0.2,0.2-0.5,0.2h-8.2v1.4
				c0,0.7,0.7,1,2.2,1h6C504.3,70.6,504.3,70.9,504.3,71.4z M500,60c0,0-0.5,0.5-1,1.2c-0.7,0.7-1,1-1.2,1.2l-0.2,0.2
				c-0.2,0-0.2,0-0.5-0.2l-0.2-0.2c0,0,0-0.2,0.2-0.2l2.2-2.2h0.2C499.7,59.8,499.7,59.8,500,60C500,59.5,500,59.8,500,60L500,60z"
				/>
			<path class="st2" d="M516.4,63.4c0,0.5-0.2,0.7-0.7,0.7h-6c-1.4,0-2.2,0.2-2.2,1v4.6c0,0.7,0.7,1,2.4,1h5.8
				c0.5,0,0.7,0.2,0.7,0.7c0,0.5-0.2,0.7-0.7,0.7h-5.8c-0.7,0-1.4,0-1.7,0c-0.5,0-0.7-0.2-1.2-0.5c-0.5-0.2-0.7-0.5-1-0.7
				c-0.2-0.2-0.2-0.7-0.2-1.2v-4.8c0-0.5,0.2-1.2,0.7-1.4s1-0.5,1.7-0.7c0.2,0,0.7,0,1.4,0h6.3c0.2,0,0.5,0,0.5,0.2
				C516.4,62.9,516.4,63.2,516.4,63.4z"/>
			<path class="st2" d="M519.2,71.6c0,0.5-0.2,0.7-0.7,0.7s-0.7,0-0.7,0c-0.2,0-0.2-0.2-0.2-0.5v-8.2c0-0.2,0-0.5,0.2-0.5
				c0,0,0.2,0,0.7,0s0.7,0.2,0.7,0.7V71.6z"/>
			<path class="st2" d="M533.2,71.4L533.2,71.4c0,0.5,0,0.7-0.2,0.7c-0.2,0.2-0.5,0.2-0.5,0.2c-0.2,0-0.5-0.2-0.7-0.5l-1.4-2.2h-7.2
				l-1.4,2.2c-0.2,0.2-0.2,0.5-0.5,0.5c0,0-0.2,0-0.5,0c-0.2-0.2-0.5-0.2-0.5-0.5c0,0,0,0,0-0.2l5.5-8.4c0.2-0.2,0.5-0.5,1-0.5
				s0.7,0,1,0.2c0,0,0,0,0,0.2L533.2,71.4z M529.1,68.2l-2.7-3.9l-2.7,3.9H529.1z"/>
			<path class="st2" d="M545,71.6c0,0.5-0.2,0.7-0.7,0.7H539c-1,0-1.7,0-2.2,0c-1-0.2-1.4-0.5-1.9-0.7c-0.5-0.5-0.7-1-0.7-1.7v-6.3
				c0-0.5,0.2-0.7,0.7-0.7s0.7,0,0.7,0c0.2,0,0.5,0.2,0.5,0.5v6.3c0,0.5,0.5,0.7,1.2,1c0.2,0,1,0,1.7,0h5.5c0.2,0,0.5,0,0.5,0.2
				C545,71.1,545,71.4,545,71.6z"/>
			<path class="st2" d="M556.9,71.4c0,0.5-0.2,0.7-0.7,0.7h-6.3c-1,0-1.7-0.2-2.4-0.5c-1-0.5-1.4-1-1.4-1.9v-4.6
				c0-0.5,0.2-1,0.5-1.2c0.7-0.7,1.9-1.2,3.6-1.2h1.7c0.5,0,0.5,0.2,0.5,0.7v0.2c0,0.5-0.2,0.7-0.5,0.7c0,0-0.2,0-0.5,0
				c-0.2,0-0.5,0-0.7,0c-1.9,0-2.9,0.2-2.9,1V67h8.4c0.5,0,0.7,0.2,0.7,0.7c0,0.2,0,0.5-0.2,0.5c-0.2,0.2-0.2,0.2-0.5,0.2h-8.4v1.4
				c0,0.7,0.7,1,2.2,1h6C556.6,70.6,556.9,70.9,556.9,71.4z"/>
			<path class="st2" d="M568.7,69.7c0,0.5,0,1-0.2,1.2c-0.5,0.7-1.7,1.2-3.9,1.2h-6c-0.5,0-0.5-0.2-0.5-0.7c0-0.2,0-0.5,0-0.5
				c0-0.2,0.2-0.2,0.5-0.2h6c1.7,0,2.4-0.2,2.4-1v-0.7c0-0.5-0.7-1-2.4-1c-2.7,0-4.1-0.2-4.3-0.2c-1.4-0.2-2.4-1-2.4-2.2v-0.5
				c0-1.2,0.7-1.9,1.9-2.2c0.5-0.2,1.7-0.2,3.1-0.2c0.5,0,0.7,0.2,0.7,0.7v0.2c0,0.5-0.2,0.7-0.7,0.7h-0.2c-0.2,0-0.2,0-0.5,0
				c-1.7,0-2.7,0.2-2.7,1v0.7c0,0.5,0.2,0.7,1,0.7c0.2,0,0.7,0,1.4,0h2.4c1,0,1.9,0.2,2.7,0.5c1,0.5,1.4,1,1.4,1.9v0.5
				C568.4,69.7,568.7,69.7,568.7,69.7z"/>
		</g>
		<path class="st3" d="M264.2,171.2c27-0.2,48.9-22.2,48.9-49.4h-3.9c0.2,25.1-20,45.6-45.1,45.6c-25.1,0.2-45.6-20-45.6-45.1
			c-0.2-25.1,20-45.6,45.1-45.6v-3.9c-27,0.2-48.9,22.2-48.9,49.4C215,149.5,237.2,171.4,264.2,171.2z"/>
		<g>
			<g>
				<g>
					<g>
						<g class="st4">
							<g>
								<g>
									<path class="st1" d="M73.8,67.7L73,68.5c-0.2,0.2-0.5,0.2-0.5,0c-1.4-1.9-2.2-4.3-1.9-7c0.2-6.5,5.5-11.6,12.1-11.3
										c0.5,0,1,0,1.4,0c5.3,0.7,9.6,5.3,9.9,10.6c0.2,2.9-0.7,5.8-2.4,8c-0.2,0.2-0.5,0.2-0.5,0l-0.7-1c0,0,0-0.2,0-0.5
										c1.2-1.7,1.9-3.6,1.9-5.8c0-5.3-4.1-9.6-9.2-10.1c-5.8-0.5-10.6,3.9-10.8,9.6c0,1.9,0.5,4.1,1.4,5.8
										C74,67.5,74,67.7,73.8,67.7z"/>
								</g>
							</g>
						</g>
						<g class="st5">
							<g>
								<g>
									<path class="st1" d="M76.7,64.6l-1,1c-0.2,0.2-0.5,0.2-0.7,0c-0.5-1.2-0.7-2.4-0.7-3.6c0.2-3.9,2.9-7,6.5-7.7
										c1-0.2,2.2-0.2,3.4,0c3.6,1,6.3,4.3,6,8c0,1.2-0.5,2.4-1,3.6c-0.2,0.2-0.5,0.2-0.7,0L88,65.1c0,0,0-0.2,0-0.5
										c0.2-0.7,0.5-1.4,0.5-2.2c0-2.4-1.4-4.8-3.9-5.8c-1.2-0.5-2.9-0.5-4.1-0.2c-2.4,0.7-4.1,2.9-4.1,5.5c0,0.7,0,1.4,0.5,2.2
										C76.7,64.4,76.7,64.6,76.7,64.6z"/>
								</g>
							</g>
						</g>
					</g>
				</g>
			</g>
			<path class="st1" d="M75.5,72.1v-3.4c0-0.2,0-1,0.7-1.2c0.2,0,0.5,0,0.7,0l0,0l0,0c0.2-0.5,0.5-0.7,0.7-0.7c0.5,0,0.7,0,1,0.2
				c0.2-0.5,0.7-0.7,1.2-0.5c0.5,0,0.7,0.2,1,0.5v-2.9c0-0.5,0-1.2,0-1.7s0.5-1,1.2-1c0.2,0,0.7,0.2,1,0.5c0.2,0.2,0.2,0.5,0.2,1
				v1.4V68v2.7c0.2-0.2,0.5-0.5,0.7-0.7c0.5-0.5,1.4-1,2.2-1c0.2,0,0.5,0,0.7,0.2c0,0,0,0,0.2,0.2c0.2,0.2,0.5,1,0.2,1.2
				c0,0.2-0.2,0.2-0.5,0.5c-0.2,0.2-0.7,0.2-1,0.7c-0.5,0.7-1.7,1.9-2.4,2.7c-0.2,0-0.5,0.5-0.7,0.5c-0.5,0.2-0.7,0.5-1,0.7L81,76.2
				c-0.5,0.2-1.4,0.5-2.4,0.5s-1.9,0-2.7-0.7l0,0l0,0c-0.7-0.7-1-1.4-1-2.4C75.5,73.3,75.5,72.3,75.5,72.1z"/>
			<path class="st1" d="M82.4,59.3c1.4,0,2.7,1.4,2.7,2.9c0,0.7-0.2,1.4-1,1.9v-1.2c0-0.5-0.2-1-0.5-1.2c-0.2-0.5-1-0.7-1.4-0.7
				c-1,0-1.7,0.7-1.9,1.4c0,0.2,0,0.2,0,0.5v1.2c-0.7-0.5-1-1.4-1-2.2C79.6,60.5,81,59.3,82.4,59.3z"/>
		</g>
		<g>
			<path class="st1" d="M145.6,95.9c2.7,0,5.1,1,7,2.9c0.2,0.2,0.5,0.7,0.5,1c0,0.5-0.2,0.7-0.5,1.2c-0.2,0.2-0.5,0.2-1,0.2
				c-0.5,0-0.7-0.2-1-0.5c-1.2-1.2-3.1-1.9-4.8-1.9s-3.6,0.7-4.8,1.9c-0.7,0.5-1.7,0.5-2.2,0c-0.2-0.2-0.5-0.7-0.5-1.2
				s0.2-0.7,0.5-1C140.5,96.9,143.2,95.9,145.6,95.9z"/>
			<path class="st1" d="M135.5,94.5c2.7-2.7,6.3-4.1,10.1-4.1c3.9,0,7.5,1.4,10.1,4.1c0.2,0.2,0.5,0.7,0.5,1c0,0.5-0.2,0.7-0.5,1.2
				c-0.2,0.2-0.7,0.5-1.2,0.5c-0.5,0-0.7-0.2-1-0.5c-2.2-2.2-5.1-3.1-8-3.1s-5.8,1.2-8,3.1c-0.7,0.5-1.7,0.5-2.2,0
				c-0.2-0.2-0.5-0.7-0.5-1.2C135,95.2,135.2,94.7,135.5,94.5z"/>
			<path class="st1" d="M142.5,104.4c0,1.7,1.4,2.9,2.9,2.9c1.7,0,2.9-1.4,2.9-2.9c0-1.7-1.4-2.9-2.9-2.9
				C143.7,101.5,142.5,102.9,142.5,104.4z M145.4,105.1L145.4,105.1L145.4,105.1L145.4,105.1z"/>
		</g>
		<path class="st1" d="M173.6,43.6v1.7c0,0.7,0.5,1.2,1.2,1.2h0.7l0,0c0,0.2,0.2,0.5,0.2,0.7l0,0l-0.5,0.5c-0.2,0.2-0.2,0.5-0.2,0.7
			s0,0.5,0.2,0.7l1.2,1.2c0.2,0.2,0.5,0.2,0.7,0.2l0,0c0.2,0,0.5,0,0.7-0.2l0.5-0.5l0,0c0.2,0.2,0.5,0.2,0.7,0.2c0,0,0,0,0,0.2v0.7
			c0,0.7,0.5,1.2,1.2,1.2h1.7c0.7,0,1.2-0.5,1.2-1.2v-0.5c0,0,0,0,0-0.2c0.2,0,0.5-0.2,0.7-0.2l0,0l0.5,0.5c0.2,0.2,0.5,0.2,0.7,0.2
			l0,0c0.2,0,0.5,0,0.7-0.2l1.2-1.2c0.5-0.5,0.5-1.2,0-1.7l-0.5-0.5l0,0c0.2-0.2,0.2-0.5,0.2-0.7l0,0h0.7c0.7,0,1.2-0.5,1.2-1.2
			v-1.7c0-0.7-0.5-1.2-1.2-1.2h0.5c0,0,0,0-0.2,0c0-0.2-0.2-0.5-0.2-0.7c0,0,0,0,0-0.2L188,41c0.5-0.5,0.5-1.2,0-1.7l-1.2-1.2
			c-0.2-0.2-0.5-0.2-0.7-0.2l0,0c-0.2,0-0.5,0-0.7,0.2l-0.5,0.5c0,0,0,0-0.2,0s-0.5-0.2-0.7-0.2l0,0v-0.7c0-0.7-0.5-1.2-1.2-1.2
			h-1.9c-0.7,0-1.2,0.5-1.2,1.2v0.7l0,0c-0.2,0-0.5,0.2-0.7,0.2c0,0,0,0-0.2,0l-0.5-0.5c-0.2-0.2-0.5-0.2-0.7-0.2l0,0
			c-0.2,0-0.5,0-0.7,0.2l-1.2,1.2c-0.2,0.2-0.2,0.5-0.2,0.7s0,0.5,0.2,0.7l0.5,0.7c0,0,0,0,0,0.2c0,0.2-0.2,0.5-0.2,0.7
			c0,0,0,0-0.2,0h-0.7C174,42.4,173.6,42.9,173.6,43.6z M181.8,41.5c1.7,0,3.1,1.4,3.1,3.1c0,1.7-1.4,3.1-3.1,3.1
			c-1.7,0-3.1-1.4-3.1-3.1C178.6,42.7,180.1,41.5,181.8,41.5z M163.9,36.9v1.2c0,0.5,0.2,0.7,0.7,0.7h0.5l0,0c0,0.2,0.2,0.5,0.2,0.5
			l0,0l-0.5,0.5c-0.2,0.2-0.2,0.2-0.2,0.5c0,0.2,0,0.5,0.2,0.5l0.7,0.7c0.2,0.2,0.2,0.2,0.5,0.2l0,0c0.2,0,0.5,0,0.5-0.2l0.5-0.5
			l0,0c0.2,0,0.5,0.2,0.5,0.2l0,0v0.5c0,0.5,0.2,0.7,0.7,0.7h1.2c0.5,0,0.7-0.2,0.7-0.7l0,0l0,0c0.2,0,0.5-0.2,0.5-0.2l0,0l0.5,0.5
			c0.2,0.2,0.2,0.2,0.5,0.2l0,0c0.2,0,0.5,0,0.5-0.2l1.7-1c0.2-0.2,0.2-0.7,0-1.2l-0.2-0.2l0,0c0-0.2,0-0.5,0-0.7l0,0h0.5
			c0.5,0,0.7-0.2,0.7-0.7v-1.2c0-0.5-0.2-0.7-0.7-0.7h-0.5l0,0c0-0.2-0.2-0.2-0.2-0.5l0,0l0.5-0.5c0.2-0.2,0.2-0.7,0-1.2l-0.7-0.7
			c-0.2-0.2-0.2-0.2-0.5-0.2l0,0c-0.2,0-0.5,0-0.5,0.2l-0.5,0.5l0,0c-0.2,0-0.2-0.2-0.5-0.2l0,0v-1c0-0.5-0.2-0.7-0.7-0.7h-1.2
			c-0.5,0-0.7,0.2-0.7,0.7V33l0,0c-0.2,0-0.2,0.2-0.5,0.2l0,0l-0.5-0.5c-0.2-0.2-0.2-0.2-0.5-0.2l0,0c-0.2,0-0.5,0-0.5,0.2l-0.7,0.7
			c-0.2,0.2-0.2,0.2-0.2,0.5c0,0.2,0,0.5,0.2,0.5l0.5,0.5l0,0c0,0.2-0.2,0.2-0.2,0.5l0,0h-0.5C164.2,36.2,163.9,36.4,163.9,36.9z
			 M169.5,35.2c1.2,0,2.2,1,2.2,2.2s-1,2.2-2.2,2.2c-1.2,0-2.2-1-2.2-2.2S168.3,35.2,169.5,35.2z"/>
		<g>
			<path class="st1" d="M74,116v-10.8c0-0.7-0.5-1.2-1.2-1.2h-1v-1.2c0-3.1-2.7-5.5-5.5-5.5c-2.4,0-4.6,1.4-5.3,3.9
				c-0.2,0.5,0,0.7,0.5,1l0.5,0.2c0.2,0.2,0.5,0.2,0.7,0c0.2,0,0.5-0.2,0.5-0.5c0.5-1.4,1.7-2.4,3.4-2.4c1.9,0,3.4,1.4,3.4,3.4v1.2
				H59.8c-0.7,0-1.2,0.5-1.2,1.2V116c0,0.7,0.5,1.2,1.2,1.2h13.5C73.5,116.9,74,116.4,74,116z M67.3,112.1c0,0.7-0.5,1.2-1.2,1.2
				s-1.2-0.5-1.2-1.2v-3.4c0-0.7,0.5-1.2,1.2-1.2s1.2,0.5,1.2,1.2V112.1z"/>
		</g>
		<g>
			<path class="st1" d="M145.8,59.8c-2.4,0-4.3,1.9-4.3,4.3v4.1c0,2.4,1.9,4.3,4.3,4.3c2.4,0,4.3-1.9,4.3-4.3v-4.1
				C150.2,61.7,148.3,59.8,145.8,59.8z M149.5,68.2c0,1.9-1.7,3.6-3.6,3.6s-3.6-1.7-3.6-3.6v-4.1c0-1.9,1.7-3.6,3.6-3.6
				s3.6,1.7,3.6,3.6V68.2z"/>
			<path class="st1" d="M149,52.6h-6.5c-0.7,0-1.2,0.5-1.2,1.2v3.4c0,0.7,0.5,1.2,1.2,1.2h6.5c0.7,0,1.2-0.5,1.2-1.2v-3.4
				C150.4,53,149.7,52.6,149,52.6z M149.5,57.1c0,0.2-0.2,0.5-0.5,0.5h-6.5c-0.2,0-0.5-0.2-0.5-0.5v-3.4c0-0.2,0.2-0.5,0.5-0.5h6.5
				c0.2,0,0.5,0.2,0.5,0.5V57.1z"/>
			<path class="st1" d="M144.9,54.5c-0.2,0-0.5,0.2-0.5,0.5v1.4c0,0.2,0.2,0.5,0.5,0.5c0.2,0,0.5-0.2,0.5-0.5V55
				C145.4,54.5,145.1,54.5,144.9,54.5z"/>
			<path class="st1" d="M146.6,54.5c-0.2,0-0.5,0.2-0.5,0.5v1.4c0,0.2,0.2,0.5,0.5,0.5c0.2,0,0.5-0.2,0.5-0.5V55
				C147,54.5,146.8,54.5,146.6,54.5z"/>
			<path class="st1" d="M147.8,65.1H147l0.7-2.9c0-0.2,0-0.2-0.2-0.5c-0.2,0-0.2,0-0.5,0l-3.4,3.9c0,0,0,0.2,0,0.5
				c0,0.2,0.2,0.2,0.2,0.2h0.7l-0.5,3.6c0,0.2,0,0.2,0.2,0.5c0,0,0,0,0.2,0c0.2,0,0.2,0,0.2-0.2l3.4-4.6c0,0,0-0.2,0-0.5
				C148,65.1,148,65.1,147.8,65.1z M145.1,68.7l0.2-2.7v-0.2l-0.2-0.2h-0.5l1.9-2.2l-0.5,1.9v0.2l0.2,0.2h0.7L145.1,68.7z"/>
			<path class="st1" d="M157.7,62h-0.5v-1c0-0.2-0.2-0.5-0.5-0.5c-0.2,0-0.5,0.2-0.5,0.5v1h-1v-1c0-0.2-0.2-0.5-0.5-0.5
				c-0.2,0-0.5,0.2-0.5,0.5v1l0,0c-0.2,0-0.5,0.2-0.5,0.5v1.9c0,0.7,0.7,1.4,1.4,1.4h0.2v3.6c0,1.2-1,2.2-2.2,2.2h-0.7v-19
				c0-1.7-1.4-3.1-3.1-3.1H142c-1.7,0-3.1,1.4-3.1,3.1v20.7h-0.2c-0.2,0-0.7,0.2-0.7,0.7c0,0.2,0.2,0.7,0.7,0.7h1h12.3h3.4
				c0.2,0,0.7-0.2,0.7-0.7c0-0.2-0.2-0.7-0.7-0.7h-2.9v-1h0.7c1.7,0,3.1-1.4,3.1-3.1v-3.6h0.2c0.7,0,1.4-0.7,1.4-1.4v-1.9
				C157.9,62.2,157.9,62,157.7,62z M140.3,73.3V52.6c0-1,0.7-1.7,1.7-1.7h7.5c1,0,1.7,0.7,1.7,1.7v20.7H140.3z M157.2,64.1
				c0,0.5-0.2,0.7-0.7,0.7h-1.2c-0.5,0-0.7-0.2-0.7-0.7v-1.4h2.7V64.1z"/>
		</g>
		<g>
			<path class="st1" d="M46.8,136L46.8,136c-0.5,0-0.7,0.2-0.7,0.5s0.2,0.5,0.5,0.5h0.2c1.2,0,2.4,1,2.4,2.4c0,1.2-1,2.4-2.4,2.4
				H32.3c-0.2,0-0.5,0.2-0.5,0.5s0.2,0.5,0.5,0.5h14.5c1.9,0,3.6-1.7,3.6-3.6C50.4,137.4,48.7,136,46.8,136z"/>
			<path class="st1" d="M46.3,144.4H31.6c-0.2,0-0.5,0.2-0.5,0.5c0,0.2,0.2,0.5,0.5,0.5h14.7c0.7,0,1.4,0.7,1.4,1.4
				c0,0.7-0.7,1.4-1.4,1.4c-0.5,0-1-0.5-1-1c0-0.2,0.2-0.2,0.2-0.2h0.2c0.2,0,0.5-0.2,0.5-0.5c0-0.2-0.2-0.5-0.5-0.5h-0.2
				c-0.7,0-1.4,0.7-1.4,1.4c0,1.2,1,2.2,2.2,2.2c1.4,0,2.7-1.2,2.7-2.7C48.9,145.6,47.7,144.4,46.3,144.4z"/>
			<path class="st1" d="M33,140.1h9.2c1.9,0,3.4-1.4,3.4-3.4s-1.4-3.4-3.4-3.4c-1.4,0-2.4,1.2-2.4,2.4v0.5c0,1.2,1,2.2,2.4,2.2
				c1.2,0,1.9-0.7,1.9-1.7v-0.5c0-0.2-0.2-0.5-0.5-0.5c-0.2,0-0.5,0.2-0.5,0.5v0.5c0,0.5-0.5,0.5-0.7,0.5c-0.7,0-1.2-0.2-1.2-1.2
				v-0.5c0-0.7,0.5-1.2,1.2-1.2c1.2,0,2.4,1,2.4,2.2c0,1.2-1,2.2-2.4,2.2H33c-0.2,0-0.5,0.2-0.5,0.5C32.5,139.8,32.8,140.1,33,140.1
				z"/>
		</g>
		<g>
			<path class="st1" d="M151.6,144.9h-12.8c-0.2,0-0.5-0.2-0.5-0.5v-7.5h-1.9c-0.2,0-0.5-0.2-0.5-0.5s0-0.5,0.2-0.7l8.9-7.2
				c0.2-0.2,0.5-0.2,0.7,0l2.7,2.2v-0.2c0-0.2,0.2-0.5,0.5-0.5h1.9c0.2,0,0.5,0.2,0.5,0.5v2.7l3.1,2.7c0.2,0.2,0.2,0.5,0.2,0.7
				s-0.2,0.5-0.5,0.5h-1.9v7.5C152.1,144.6,151.9,144.9,151.6,144.9z M139.3,143.7h11.6v-7.5c0-0.2,0.2-0.5,0.5-0.5h1l-2.2-1.7
				c-0.2,0-0.2-0.2-0.2-0.5v-2.4h-0.7v1c0,0.2-0.2,0.5-0.2,0.5c-0.2,0-0.5,0-0.5,0l-3.4-2.7l-7.2,6h1c0.2,0,0.5,0.2,0.5,0.5
				C139.3,136.4,139.3,143.7,139.3,143.7z"/>
			<path class="st1" d="M145.1,140.3c-1,0-1.9-1-1.9-1.9c0-1,1-1.9,1.9-1.9c1,0,1.9,1,1.9,1.9C147,139.3,146.1,140.3,145.1,140.3z
				 M145.1,137.2c-0.7,0-1.2,0.5-1.2,1.2c0,0.7,0.5,1.2,1.2,1.2c0.7,0,1.2-0.5,1.2-1.2S145.8,137.2,145.1,137.2z"/>
			<path class="st1" d="M145.1,136.2C144.9,136.2,144.9,136,145.1,136.2l-0.2-1.4c0-0.2,0.2-0.2,0.2-0.2c0.2,0,0.2,0.2,0.2,0.2
				L145.1,136.2C145.4,136,145.4,136.2,145.1,136.2z"/>
			<path class="st1" d="M143.4,136.9C143.2,136.9,143.2,136.9,143.4,136.9l-1.2-1c-0.2-0.2-0.2-0.2,0-0.5c0.2-0.2,0.2-0.2,0.5,0l1,1
				C143.7,136.4,143.7,136.7,143.4,136.9L143.4,136.9z"/>
			<path class="st1" d="M142.7,138.6h-1.2c-0.2,0-0.2-0.2-0.2-0.2c0-0.2,0.2-0.2,0.2-0.2h1.2C142.9,138.1,142.9,138.4,142.7,138.6
				C142.9,138.6,142.7,138.6,142.7,138.6z"/>
			<path class="st1" d="M142.5,141.3C142.5,141.3,142.2,141.3,142.5,141.3c-0.5-0.2-0.5-0.5-0.2-0.5l1-1c0.2-0.2,0.2-0.2,0.5,0
				c0.2,0.2,0.2,0.2,0,0.5L142.5,141.3C142.7,141.3,142.5,141.3,142.5,141.3z"/>
			<path class="st1" d="M145.1,142.5C144.9,142.5,144.9,142.2,145.1,142.5l-0.2-1.4c0-0.2,0.2-0.2,0.2-0.2c0.2,0,0.2,0.2,0.2,0.2
				L145.1,142.5C145.4,142.2,145.4,142.5,145.1,142.5z"/>
			<path class="st1" d="M147.8,141.3C147.5,141.3,147.5,141.3,147.8,141.3l-1.2-1c-0.2-0.2-0.2-0.2,0-0.5c0.2-0.2,0.5,0,0.5,0l1,1
				C148,140.8,148,141,147.8,141.3C148,141.3,147.8,141.3,147.8,141.3z"/>
			<path class="st1" d="M148.7,138.6h-1.2c-0.2,0-0.2-0.2-0.2-0.2c0-0.2,0.2-0.2,0.2-0.2h1.2C149,138.1,149,138.4,148.7,138.6
				C149.2,138.6,149,138.6,148.7,138.6z"/>
			<path class="st1" d="M146.8,136.9C146.8,136.9,146.6,136.9,146.8,136.9c-0.5-0.2-0.5-0.5-0.2-0.5l1-1c0.2-0.2,0.2-0.2,0.5,0
				c0.2,0.2,0.2,0.2,0,0.5L146.8,136.9C147,136.9,147,136.9,146.8,136.9z"/>
		</g>
		<g>
			<line class="st6" x1="178.9" y1="109.4" x2="178.9" y2="125.1"/>
			<polyline class="st6" points="180.8,111.1 178.9,113.1 176.7,111.1 			"/>
			<polyline class="st6" points="176.7,123.7 178.9,121.7 180.8,123.7 			"/>
			<line class="st6" x1="185.4" y1="113.3" x2="172.1" y2="121.5"/>
			<polyline class="st6" points="185.1,115.7 182.5,115.2 183.2,112.3 			"/>
			<polyline class="st6" points="172.4,118.8 175,119.6 174.3,122.5 			"/>
			<line class="st6" x1="185.6" y1="121.3" x2="171.9" y2="113.5"/>
			<polyline class="st6" points="183.2,122.2 182.5,119.6 185.1,118.8 			"/>
			<polyline class="st6" points="174.3,112.6 175,115.2 172.4,116 			"/>
		</g>
		<g>
			<path class="st7" d="M68.9,192.4h-3.4c-3.4,0-6-2.7-6-6l0,0c0-3.4,2.7-6,6-6h3.4c3.4,0,6,2.7,6,6l0,0
				C75,189.5,72.3,192.4,68.9,192.4z"/>
			<path class="st1" d="M63.4,194.1h-1.2c-0.5,0-1-0.5-1-1v-0.7c0-0.2,0.2-0.7,0.7-0.7h2.2c0.2,0,0.7,0.2,0.7,0.7v0.5
				C64.4,193.6,63.9,194.1,63.4,194.1z"/>
			<path class="st1" d="M72.3,194.1h-1.2c-0.5,0-1-0.5-1-1v-0.7c0-0.2,0.2-0.7,0.7-0.7H73c0.2,0,0.7,0.2,0.7,0.7v0.5
				C73.5,193.6,73,194.1,72.3,194.1z"/>
			<path class="st8" d="M72.1,184.4h-0.5c-0.7,0-1.2-0.5-1.2-1.2l0,0c0-0.7,0.5-1.2,1.2-1.2h0.5c0.7,0,1.2,0.5,1.2,1.2l0,0
				C73.3,183.9,72.6,184.4,72.1,184.4z"/>
			<line class="st8" x1="70.4" y1="186.6" x2="73.3" y2="186.6"/>
			<line class="st8" x1="70.4" y1="188.5" x2="73.3" y2="188.5"/>
			<line class="st8" x1="70.4" y1="190.2" x2="73.3" y2="190.2"/>
			
				<ellipse transform="matrix(3.327790e-02 -0.9994 0.9994 3.327790e-02 -123.0753 244.9562)" class="st8" cx="65.1" cy="186.1" rx="4.1" ry="4.1"/>
			<circle class="st9" cx="65.1" cy="186.1" r="0.7"/>
			<path class="st9" d="M64.6,185.6l-0.5-0.7c-0.2-0.2-0.2-0.5-0.2-0.5l0,0c0-0.5,0.5-1,1-1h0.2c0.7,0,1.2,0.2,1.7,0.7l0,0
				c0.2,0.2,0,0.5-0.2,0.5h-0.2c-0.2,0-0.5,0-0.7,0.2l-0.5,0.5"/>
			<path class="st9" d="M65.8,185.9h1c0.2,0,0.5,0,0.5,0.2l0,0c0.5,0.2,0.5,1,0.2,1.2v0.5c-0.5,0.5-1,0.7-1.7,0.7l0,0
				c-0.2,0-0.5-0.2-0.2-0.5l0.2-0.2c0.2-0.2,0.2-0.5,0.2-0.7v-0.5"/>
			<path class="st9" d="M64.8,186.6l-0.5,0.7c0,0.2-0.2,0.2-0.5,0.5l0,0c-0.5,0.2-1,0-1.2-0.5v-0.2c-0.2-0.7-0.2-1.2,0-1.9l0,0
				c0.2-0.2,0.5-0.2,0.7,0v0.2c0,0.2,0.2,0.5,0.7,0.5l0.5,0.2"/>
		</g>
		<g>
			<path class="st1" d="M93.8,180.8h-4.1c-1.7,0-3.1-1.4-3.1-3.1v-4.3c0-0.5,0.2-0.7,0.7-0.7h8.7c0.5,0,0.7,0.2,0.7,0.7v4.3
				C96.9,179.3,95.5,180.8,93.8,180.8z M88,173.8v3.6c0,1,0.7,1.7,1.7,1.7h4.1c1,0,1.7-0.7,1.7-1.7v-3.6
				C95.5,173.8,88,173.8,88,173.8z"/>
			<path class="st1" d="M91.6,185.4c-0.5,0-0.7-0.2-0.7-0.7v-4.6c0-0.5,0.2-0.7,0.7-0.7c0.5,0,0.7,0.2,0.7,0.7v4.6
				C92.6,184.9,92.1,185.4,91.6,185.4z"/>
			<g>
				<path class="st1" d="M89,173.8c-0.5,0-0.7-0.2-0.7-0.7v-4.6c0-0.5,0.2-0.7,0.7-0.7c0.5,0,0.7,0.2,0.7,0.7v4.6
					C89.7,173.6,89.4,173.8,89,173.8z"/>
				<path class="st1" d="M94.5,173.8c-0.5,0-0.7-0.2-0.7-0.7v-4.6c0-0.5,0.2-0.7,0.7-0.7c0.5,0,0.7,0.2,0.7,0.7v4.6
					C95.2,173.6,94.7,173.8,94.5,173.8z"/>
			</g>
		</g>
		<g>
			<path class="st1" d="M146.1,193.8c-1.9,0-5.1-0.2-5.1-1v-14.2c0-2.9,2.4-5.1,5.1-5.1c2.9,0,5.1,2.4,5.1,5.1v14.2
				C151.1,193.8,148,193.8,146.1,193.8z M141.5,192.8c0.2,0.2,1.9,0.5,4.6,0.5s4.3-0.2,4.6-0.5v-14c0-2.7-2.2-4.6-4.6-4.6
				c-2.7,0-4.6,2.2-4.6,4.6V192.8z"/>
			<path class="st1" d="M147,174.3L147,174.3c-0.7-0.2-1.4-0.2-1.9,0h-0.2V174v-1.4c0-0.2,0.2-0.2,0.2-0.2h1.9
				c0.2,0,0.2,0.2,0.2,0.2L147,174.3C147.3,174,147.3,174,147,174.3L147,174.3z M145.1,172.8v0.7c0.5,0,1,0,1.4,0v-1h-1.4V172.8z"/>
			<g>
				<path class="st1" d="M135,188L135,188c-0.5,0-2.2-1-2.7-1.2c-2.7-1.4-2.4-1.7-2.4-1.9l6.7-8.9c0.2-0.2,0.7-0.5,1-0.2l1.4,0.7
					c0.2,0.2,0.5,0.5,0.2,1L135,188C135.2,187.8,135,188,135,188z M130.7,184.9c0.2,0.2,1,0.7,1.9,1.2c1,0.5,1.7,1,2.2,1.2l4.3-10.1
					v-0.2l-1.4-0.7h-0.2L130.7,184.9z"/>
				<path class="st1" d="M139.1,176.9L139.1,176.9l-1.7-1c0,0,0,0-0.2-0.2v-0.2l0.5-0.7c0-0.2,0.2-0.2,0.5,0l1.4,1c0,0,0,0,0.2,0.2
					v0.2L139.1,176.9C139.3,176.9,139.3,176.9,139.1,176.9z M138.1,175.7l1,0.5V176L138.1,175.7L138.1,175.7z"/>
			</g>
			<path class="st1" d="M155.5,173.3L155.5,173.3c-0.2,0-1,0-1.2-0.2c-0.2-0.2-1.2-0.2-1.7-0.2c-0.2,0-0.5,0-0.7,0h-6.7l0,0
				c-0.2,0-0.7-0.2-0.7-0.5v-1.4c0-0.2,0-0.5,0.2-0.5l6.7-3.9c0,0,1.4-0.5,2.2-0.5c0.5,0,0.7,0.2,0.7,0.7c0,0.2,0,0.5-0.2,0.5
				c-0.2,0.2-0.7,0.2-1.2,0.5c-0.2,0-0.2,0.2-0.5,0.2h-0.2c-0.5,0.2-1,0.5-1.2,0.7c-0.5,0.2-1,0.5-1.4,0.7c-0.2,0-0.2,0.2-0.5,0.2
				c-0.5,0.2-0.7,0.5-0.7,0.7c0,0.2,0,0.2,0,0.5l0,0c0.2,0,1-0.2,1.4-0.5c0.5-0.2,1-0.2,1.2-0.2l0,0h0.2c0.2,0,0.5,0,0.7,0
				s2.7,0.5,3.4,1c0.7,0.5,1.4,1.2,1.2,1.7C156.4,173.1,156.2,173.3,155.5,173.3z M151.6,172.1c0.2,0,0.5,0,0.7,0c1,0,1.7,0,2.2,0.2
				c0,0,0.5,0.2,1,0.2c0.2,0,0.5,0,0.5,0c0-0.2-0.5-0.5-1-0.7c-0.7-0.5-2.9-0.7-3.1-0.7s-0.5,0-0.7,0h-0.2c-0.2,0-0.5,0.2-1,0.2
				c-0.7,0.2-1.2,0.5-1.7,0.5c-0.2,0-0.5,0-0.5-0.2c-0.2-0.2-0.2-0.7,0-1c0.2-0.5,0.7-0.7,1.2-1l0.2-0.2c0.5-0.2,1-0.5,1.4-1
				c0.5-0.2,1-0.5,1.2-0.7c0,0,0,0,0.2,0s0.5-0.2,0.7-0.2s0.5-0.2,1-0.5c0,0,0-0.2-0.2-0.2c0,0,0,0-0.2,0c-0.5,0-1.2,0.2-1.7,0.5
				l-6.5,3.9l0,0v1.4l0,0L151.6,172.1z"/>
			<path class="st1" d="M144.6,172.4h-3.1c-0.2,0-0.2-0.2-0.2-0.2v-1.2c0-0.2,0.2-0.2,0.2-0.2h3.1c0.2,0,0.2,0.2,0.2,0.2
				L144.6,172.4C144.9,172.4,144.6,172.4,144.6,172.4z M141.7,171.9h2.7v-0.7h-2.7V171.9z"/>
			<path class="st1" d="M138.9,176C138.9,176,138.6,176,138.9,176c-0.2,0-0.2-0.2-0.2-0.5l2.7-4.3c0-0.2,0.2-0.2,0.5,0
				c0.2,0,0.2,0.2,0,0.5l-2.7,4.3C139.1,175.7,138.9,176,138.9,176z"/>
			<path class="st1" d="M149,188.3h-6c-0.2,0-0.2-0.2-0.2-0.2v-7.7c0-0.2,0.2-0.2,0.2-0.2h6c0.2,0,0.2,0.2,0.2,0.2L149,188.3
				C149.2,188.3,149.2,188.3,149,188.3z M143.2,187.8h5.5v-7.2h-5.5V187.8z"/>
		</g>
		<g>
			<path class="st3" d="M223.5,163.4l2.7-2.7c-21.2-21-21.5-55.2-0.5-76.4l-2.7-2.7C200.6,104.4,200.8,141,223.5,163.4z"/>
			<g>
				<g>
					<polygon class="st1" points="167.1,62.2 188.8,62.2 199.6,43.4 188.8,24.6 188.3,25.1 198.9,43.4 188.3,61.5 167.1,61.5 					
						"/>
				</g>
				<g>
					
						<linearGradient id="SVGID_1_" gradientUnits="userSpaceOnUse" x1="-6547.6826" y1="818.6644" x2="-6422.4297" y2="943.9171" gradientTransform="matrix(-1 0 0 1 -6309.7974 -768)">
						<stop  offset="0" style="stop-color:#BEC9D5"/>
						<stop  offset="0.9543" style="stop-color:#FDFEFE"/>
						<stop  offset="0.9994" style="stop-color:#FFFFFF"/>
					</linearGradient>
					<polygon class="st10" points="166.8,136 167.5,135.7 156.7,117.2 156.2,117.6 					"/>
				</g>
				<g>
					<path class="st1" d="M124.1,62L135,43.1h21.7L167.5,62l-10.8,18.8H135L124.1,62z M166.8,62l-10.6-18.1h-21L124.6,62L135.2,80
						h21L166.8,62z"/>
				</g>
				<g>
					<polygon class="st1" points="135,117.6 156.7,117.6 167.5,99.1 166.8,98.6 156.4,116.9 135.5,116.9 124.9,98.8 135.5,80.5 
						135,80.3 124.1,98.8 					"/>
				</g>
				<g>
					<polygon class="st1" points="167.1,99.1 188.8,99.1 199.6,80.3 188.8,61.5 167.1,61.5 167.1,62.2 188.3,62.2 198.9,80.3 
						188.3,98.6 167.3,98.6 156.7,80.3 156.2,80.5 					"/>
				</g>
				<g>
					<polygon class="st1" points="102.9,99.1 103.4,98.6 92.8,80.3 103.4,62.2 124.6,62.2 124.6,61.5 102.9,61.5 92.1,80.3 					"/>
				</g>
				<g>
					
						<linearGradient id="SVGID_00000077298038850227183830000004785468863234577337_" gradientUnits="userSpaceOnUse" x1="-6478.6729" y1="749.6668" x2="-6353.4297" y2="874.9099" gradientTransform="matrix(-1 0 0 1 -6309.7974 -768)">
						<stop  offset="0" style="stop-color:#BEC9D5"/>
						<stop  offset="0.9543" style="stop-color:#FDFEFE"/>
						<stop  offset="0.9994" style="stop-color:#FFFFFF"/>
					</linearGradient>
					<polygon style="fill:url(#SVGID_00000077298038850227183830000004785468863234577337_);" points="102.9,62 103.4,61.7 
						92.8,43.1 92.3,43.6 					"/>
				</g>
				<g>
					<rect x="55.9" y="80" class="st1" width="36.4" height="0.7"/>
				</g>
				<g>
					<rect x="199.1" y="80" class="st1" width="51.1" height="0.7"/>
				</g>
			</g>
			<g>
				<path class="st1" d="M24.1,141.5l8.7-14.9h17.1l8.7,14.9l-8.7,14.9H32.8L24.1,141.5z M57.6,141.5l-8.2-14.2H33l-8.2,14.2
					l8.2,14.2h16.4L57.6,141.5z"/>
			</g>
			<g>
				<g class="st12">
					<polygon class="st1" points="108.2,170.9 125.4,170.9 133.8,156 125.4,141.3 124.9,141.7 133.1,156 124.9,170.2 108.2,170.2 
											"/>
				</g>
				<g>
					<path class="st1" d="M74.5,170.7l8.7-14.9h17.1l8.7,14.9l-8.7,14.9H83.2L74.5,170.7z M108,170.7l-8.2-14.2H83.4l-8.2,14.2
						l8.2,14.2h16.4L108,170.7z"/>
				</g>
				<g class="st12">
					
						<rect x="70.7" y="192.1" transform="matrix(0.5 -0.866 0.866 0.5 -127.0752 164.7928)" class="st1" width="16.9" height="0.7"/>
				</g>
				<g class="st12">
					<polygon class="st1" points="57.9,199.8 58.3,199.6 50.1,185.1 58.3,170.7 57.9,170.2 49.2,185.1 					"/>
				</g>
				<g class="st12">
					
						<rect x="53.5" y="155" transform="matrix(0.8656 -0.5008 0.5008 0.8656 -74.6109 48.9518)" class="st1" width="0.7" height="16.9"/>
				</g>
				<g class="st12">
					<rect x="31.6" y="184.9" class="st1" width="18.1" height="0.7"/>
				</g>
			</g>
			<g>
				<g>
					<path class="st1" d="M153.1,123.4l8.2,14.2l-8.2,14.2h-16.4l-8.2-14.2l8.2-14.2C136.7,123.4,153.1,123.4,153.1,123.4z
						 M136.2,122.7l-8.7,14.9l8.7,14.9h17.4l8.7-14.9l-8.7-14.9H136.2L136.2,122.7z"/>
				</g>
			</g>
			<g>
				<g>
					<path class="st1" d="M122.7,106.8l8,13.7l-8,13.7h-15.9l-8-13.7l8-13.7H122.7z M106.3,106.1l-8.4,14.5l8.4,14.5h16.6l8.4-14.5
						l-8.4-14.5H106.3L106.3,106.1z"/>
				</g>
			</g>
			<g>
				<g>
					<path class="st1" d="M186.8,103.4l8,13.7l-8,13.7h-15.9l-8-13.7l8-13.7H186.8z M170.4,102.7l-8.4,14.5l8.4,14.5h16.6l8.4-14.5
						l-8.4-14.5H170.4L170.4,102.7z"/>
				</g>
			</g>
			<g class="st12">
				<path class="st1" d="M92.1,43.4l10.8-18.8h21.7l10.8,18.8l-10.8,18.8h-21.7L92.1,43.4z M134.8,43.4l-10.4-18.1h-21L92.8,43.4
					l10.4,18.1h21L134.8,43.4z"/>
			</g>
			<g class="st12">
				<path class="st1" d="M157.7,153.8l10.8-18.8h21.7l10.8,18.8l-10.8,18.8h-21.7L157.7,153.8z M200.3,153.8L190,135.7h-21
					l-10.4,18.1l10.4,18.1h21L200.3,153.8z"/>
			</g>
			<g class="st12">
				<path class="st1" d="M29.7,42.9l10.8-18.8h21.7L73,42.9L62.2,61.7H40.5L29.7,42.9z M72.3,42.9L62,24.8H41L30.4,42.9L41,61.2h21
					L72.3,42.9z"/>
			</g>
			
				<linearGradient id="SVGID_00000064311676248009557480000017107586095097407924_" gradientUnits="userSpaceOnUse" x1="-6412.6592" y1="909.5026" x2="-6359.2632" y2="909.5026" gradientTransform="matrix(-1 0 0 1 -6309.7974 -768)">
				<stop  offset="0" style="stop-color:#BEC9D5"/>
				<stop  offset="0.9543" style="stop-color:#203483"/>
				<stop  offset="0.9994" style="stop-color:#FFFFFF"/>
			</linearGradient>
			<path style="opacity:0.5;fill:url(#SVGID_00000064311676248009557480000017107586095097407924_);enable-background:new    ;" d="
				M49.9,126.8l0.2,0.5l8.2,14.2h16.4l6.5-11.1l1.7-2.9l0.2-0.2l0.2-0.5H101c0.2-0.5,0.5-0.7,1-0.7c0.7,0,1.2,0.5,1.2,1.2
				c0,0.7-0.5,1.2-1.2,1.2c-0.5,0-1-0.2-1-0.7H83.6L75.5,142l8.2,14.2H100l0,0v0.7H83.2L75,142.5H58.1l-8.4-14.7L49.9,126.8z"/>
			<g>
				<path class="st1" d="M123.4,180.1l10.8-18.8H156l10.8,18.8L156,198.9h-21.7L123.4,180.1z M165.8,180.1L155.5,162h-21l-10.4,18.1
					l10.4,18.1h21L165.8,180.1z"/>
			</g>
			<g>
				<g>
					<path class="st14" d="M166.1,98.8c0,0.5,0.5,1,1,1c0.5,0,1-0.5,1-1c0-0.5-0.5-1-1-1C166.6,97.9,166.1,98.4,166.1,98.8z"/>
				</g>
				<g>
					<path class="st14" d="M187.5,98.8c0,0.5,0.5,1,1,1c0.5,0,1-0.5,1-1c0-0.5-0.5-1-1-1C187.8,97.9,187.5,98.4,187.5,98.8z"/>
				</g>
				<g>
					<path class="st14" d="M166.1,136c0,0.5,0.5,1,1,1c0.5,0,1-0.5,1-1c0-0.5-0.5-1-1-1C166.6,134.8,166.1,135.2,166.1,136z"/>
				</g>
				<g>
					<path class="st14" d="M155.5,80.3c0,0.5,0.5,1,1,1c0.5,0,1-0.5,1-1s-0.5-1-1-1C156,79.3,155.5,79.8,155.5,80.3z"/>
				</g>
				<g>
					<path class="st14" d="M155.5,117.4c0,0.5,0.5,1,1,1c0.5,0,1-0.5,1-1s-0.5-1-1-1C156,116.4,155.5,116.7,155.5,117.4z"/>
				</g>
				<g>
					<path class="st14" d="M134,80.3c0,0.5,0.5,1,1,1s1-0.5,1-1s-0.5-1-1-1S134,79.8,134,80.3z"/>
				</g>
				<g>
					<path class="st14" d="M134,43.4c0,0.5,0.5,1,1,1s1-0.5,1-1s-0.5-1-1-1C134.5,42.2,134,42.7,134,43.4z"/>
				</g>
				<g>
					<path class="st14" d="M155.5,43.4c0,0.5,0.5,1,1,1c0.5,0,1-0.5,1-1s-0.5-1-1-1C156,42.2,155.5,42.7,155.5,43.4z"/>
				</g>
				<g>
					<path class="st14" d="M91.4,80.3c0,0.5,0.5,1,1,1c0.5,0,1-0.5,1-1s-0.5-1-1-1S91.4,79.8,91.4,80.3z"/>
				</g>
				<g>
					<path class="st14" d="M55,80.3c0,0.5,0.5,1,1,1s1-0.5,1-1s-0.5-1-1-1S55,79.8,55,80.3z"/>
				</g>
				<g>
					<path class="st14" d="M198.2,80.3c0,0.5,0.5,1,1,1c0.5,0,1-0.5,1-1s-0.5-1-1-1C198.6,79.3,198.2,79.8,198.2,80.3z"/>
				</g>
				<g>
					<path class="st14" d="M166.1,62c0,0.5,0.5,1,1,1c0.5,0,1-0.5,1-1s-0.5-1-1-1C166.6,60.7,166.1,61.2,166.1,62z"/>
				</g>
				<g>
					<path class="st14" d="M187.5,62c0,0.5,0.5,1,1,1c0.5,0,1-0.5,1-1s-0.5-1-1-1C187.8,60.7,187.5,61.2,187.5,62z"/>
				</g>
				<g>
					<path class="st14" d="M102.2,62c0,0.5,0.5,1,1,1s1-0.5,1-1s-0.5-1-1-1C102.7,60.7,102.2,61.2,102.2,62z"/>
				</g>
				<g>
					<path class="st14" d="M91.4,43.4c0,0.5,0.5,1,1,1c0.5,0,1-0.5,1-1s-0.5-1-1-1C91.8,42.2,91.4,42.7,91.4,43.4z"/>
				</g>
				<g>
					<path class="st14" d="M123.4,62c0,0.5,0.5,1,1,1c0.5,0,1-0.5,1-1s-0.5-1-1-1C123.9,60.7,123.4,61.2,123.4,62z"/>
				</g>
				<g>
					<path class="st14" d="M134,117.4c0,0.5,0.5,1,1,1s1-0.5,1-1s-0.5-1-1-1C134.5,116.2,134,116.7,134,117.4z"/>
				</g>
				<g>
					<path class="st14" d="M123.4,98.8c0,0.5,0.5,1,1,1c0.5,0,1-0.5,1-1c0-0.5-0.5-1-1-1S123.4,98.4,123.4,98.8z"/>
				</g>
				<g>
					<path class="st14" d="M102.2,98.8c0,0.5,0.5,1,1,1s1-0.5,1-1c0-0.5-0.5-1-1-1C102.7,97.9,102.2,98.4,102.2,98.8z"/>
				</g>
				<g>
					<path class="st14" d="M198.2,43.4c0,0.5,0.5,1,1,1s1-0.5,1-1s-0.5-1-1-1C198.6,42.2,198.2,42.7,198.2,43.4z"/>
				</g>
				<g>
					<path class="st14" d="M187.5,25.1c0,0.5,0.5,1,1,1c0.5,0,1-0.5,1-1c0-0.5-0.5-1-1-1C187.8,24.1,187.5,24.6,187.5,25.1z"/>
				</g>
			</g>
			<g>
				<g>
					<path class="st14" d="M132.6,156c0,0.7,0.5,1.2,1.2,1.2c0.7,0,1.2-0.5,1.2-1.2c0-0.7-0.5-1.2-1.2-1.2
						C133.1,154.8,132.6,155.5,132.6,156z"/>
				</g>
				<g>
					<path class="st14" d="M124.1,141.5c0,0.7,0.5,1.2,1.2,1.2s1.2-0.5,1.2-1.2c0-0.7-0.5-1.2-1.2-1.2
						C124.6,140.5,124.1,141,124.1,141.5z"/>
				</g>
				<g>
					<path class="st14" d="M98.6,156c0,0.7,0.5,1.2,1.2,1.2c0.7,0,1.2-0.5,1.2-1.2c0-0.7-0.5-1.2-1.2-1.2
						C99.1,155,98.6,155.5,98.6,156z"/>
				</g>
				<g>
					<path class="st14" d="M48.5,156c0,0.7,0.5,1.2,1.2,1.2s1.2-0.5,1.2-1.2c0-0.7-0.5-1.2-1.2-1.2C48.9,155,48.5,155.5,48.5,156z"
						/>
				</g>
				<g>
					<path class="st14" d="M73.8,200.1c0,0.7,0.5,1.2,1.2,1.2c0.7,0,1.2-0.5,1.2-1.2s-0.5-1.2-1.2-1.2
						C74.2,198.9,73.8,199.4,73.8,200.1z"/>
				</g>
				<g>
					<path class="st14" d="M98.8,185.1c0,0.7,0.5,1.2,1.2,1.2s1.2-0.5,1.2-1.2s-0.5-1.2-1.2-1.2S98.8,184.4,98.8,185.1z"/>
				</g>
				<g>
					<path class="st14" d="M31.6,185.1c0,0.7,0.5,1.2,1.2,1.2c0.7,0,1.2-0.5,1.2-1.2s-0.5-1.2-1.2-1.2
						C32.1,183.9,31.6,184.4,31.6,185.1z"/>
				</g>
				<g>
					<path class="st14" d="M48.5,185.1c0,0.7,0.5,1.2,1.2,1.2s1.2-0.5,1.2-1.2s-0.5-1.2-1.2-1.2S48.5,184.4,48.5,185.1z"/>
				</g>
			</g>
			<g>
				
					<rect x="194.8" y="116.9" transform="matrix(1 -5.942259e-03 5.942259e-03 1 -0.6919 1.2039)" class="st1" width="14.9" height="0.2"/>
				
					<rect x="186.8" y="131.1" transform="matrix(1 -5.592053e-03 5.592053e-03 1 -0.7308 1.1358)" class="st1" width="31.8" height="0.2"/>
				
					<rect x="200.8" y="154.3" transform="matrix(1 -4.900155e-03 4.900155e-03 1 -0.7539 1.1099)" class="st1" width="50.6" height="0.2"/>
				<path class="st14" d="M196.7,117.2c0-1.2-1-1.9-1.9-1.9c-1.2,0-1.9,1-1.9,1.9c0,1.2,1,1.9,1.9,1.9
					C196,119.3,196.7,118.4,196.7,117.2z"/>
				<path class="st14" d="M188.8,131.1c0-1.2-1-1.9-1.9-1.9c-1.2,0-1.9,1-1.9,1.9c0,1.2,1,1.9,1.9,1.9
					C187.8,133.3,188.8,132.3,188.8,131.1z"/>
				<path class="st14" d="M202.7,154.8c0-1.2-1-1.9-1.9-1.9c-1.2,0-1.9,1-1.9,1.9c0,1.2,1,1.9,1.9,1.9S202.7,155.7,202.7,154.8z"/>
			</g>
		</g>
		<path class="st1" d="M284.2,87c-6.3-3.6-13.3-5.3-20-5.3l0,0c-14.2,0-28,7.2-35.4,20.5c-11.1,19.3-4.3,44.1,15.2,55
			c19.5,11.1,44.4,4.3,55.4-15.2C310.5,122.7,303.7,98.1,284.2,87z"/>
		<g>
			<path class="st2" d="M304.7,123.2c0-1,0-1.9,0-2.7c-15.7,0.5-37.1,0-49.2-5.5C255.5,115,265.6,125.4,304.7,123.2"/>
			<path class="st2" d="M256.7,124.1c0,0,9.9,9.9,46.8,8.4c0.2-1,0.5-1.9,0.7-2.9C288.5,130.2,268.3,129.7,256.7,124.1"/>
			<path class="st0" d="M256,119.8c0,0,10.1,10.1,48.2,8.2c0.2-1,0.2-1.9,0.2-2.9C289,125.8,268.1,125.1,256,119.8"/>
			<rect x="302.3" y="129.9" class="st2" width="273.6" height="2.7"/>
			<polygon class="st2" points="302.3,120.5 302.3,123.2 575.9,123.2 575.9,120.5 			"/>
			<path class="st1" d="M434.9,111.9h45.8c0,0,8.4,0.7,8.7,4.3v10.6c0,0-1.7,6.3-10.6,6.5h-43.9L434.9,111.9L434.9,111.9z
				 M505.3,148.5v-30.4c0,0,3.4-6.3,13-6.3h29.4c0,0,9.6,1.7,9.9,6v30.4c0,0,2.7,5.3-15.2,7.2h-22.7
				C519.7,155.5,506,155.5,505.3,148.5 M516.8,102.5c-9.9,1-15.4,4.1-18.6,7.2c-5.5-6.7-18.6-7.2-18.6-7.2h-52.8
				c-2.7,0-3.1,2.7-3.1,2.7v32.8c-3.1-2.2-8-4.1-15.2-4.8h-28.4c0,0-8.7-0.7-8.9-4.3c-0.2-3.6,0-11.1,0-11.1s1.7-6,14.5-6h9.2
				c0,0,1.7-0.2,1.7-2.4v-3.1c0,0-0.2-3.4-3.1-3.4c-2.9,0-10.8,0-10.8,0l0,0h-7.2h-15.4h-44.6l0,0h-0.2h-2.4h-0.7
				c-1.4,0-2.4,1-2.4,2.4v4.6c0,1.2,1.2,2.4,2.4,2.4h0.7h2.4h0.2l0,0l22.2,0.2c0,0,0.2,47.2,0.2,49.7c0,2.2,2.4,2.4,2.4,2.4h6.5
				c1.9,0,1.9-3.1,1.9-3.1v-49.7h12.5c-1,1.7-1.2,3.1-1.2,3.9v16.2c0,0,3.4,9.9,16.4,9.9c13,0,30.4,1,30.4,1s12.3-0.7,12.3,6
				c0,7.2-12.5,6.5-12.5,6.5h-43.9c0,0-2.4,0.5-2.4,4.8c0,4.6,3.9,4.1,3.9,4.1h41.5l0,0h21h5.1h0.5l0,0c2.4-0.2,2.7-2.4,2.7-2.4
				l0.2-19.3l41.2-0.7c8.9,0,14.7-1.7,18.3-4.1v12.5c3.4,13,20.7,13.7,20.7,13.7h32.8c22.7-1.9,20.7-14.9,20.7-14.9v-31.1
				c-0.7-14.9-21.2-14.9-21.2-14.9L516.8,102.5L516.8,102.5z"/>
			<rect x="302.8" y="125.4" class="st0" width="272.2" height="2.7"/>
		</g>
	</g>
</g>
</svg>
